<svg width="194" height="24" viewBox="0 0 194 24" fill="none" xmlns="http://www.w3.org/2000/svg">
<circle cx="12" cy="12" r="12" fill="white" fill-opacity="0.4"/>
<circle cx="12" cy="12" r="4" fill="white"/>
<path d="M53 12L12 12" stroke="white" stroke-opacity="0.6" stroke-miterlimit="10" stroke-linecap="round"/>
<path d="M73.2129 4.5C74.7849 4.5 76.1589 4.782 77.3349 5.346C78.5229 5.91 79.4469 6.696 80.1069 7.704C80.7669 8.712 81.0969 9.894 81.0969 11.25C81.0969 12.594 80.7669 13.776 80.1069 14.796C79.4469 15.804 78.5229 16.59 77.3349 17.154C76.1589 17.718 74.7849 18 73.2129 18H66.8049V4.5H73.2129ZM69.8469 16.794L68.2989 15.3H73.4469C74.3589 15.3 75.1569 15.132 75.8409 14.796C76.5369 14.46 77.0709 13.986 77.4429 13.374C77.8149 12.762 78.0009 12.054 78.0009 11.25C78.0009 10.434 77.8149 9.726 77.4429 9.126C77.0709 8.514 76.5369 8.04 75.8409 7.704C75.1569 7.368 74.3589 7.2 73.4469 7.2H68.2989L69.8469 5.706V16.794ZM88.6962 18.27C87.4842 18.27 86.3982 18.048 85.4382 17.604C84.4902 17.148 83.7402 16.512 83.1882 15.696C82.6482 14.88 82.3782 13.932 82.3782 12.852C82.3782 11.784 82.6362 10.848 83.1522 10.044C83.6802 9.24 84.4002 8.616 85.3122 8.172C86.2242 7.716 87.2622 7.488 88.4262 7.488C89.6142 7.488 90.6342 7.752 91.4862 8.28C92.3382 8.796 92.9922 9.528 93.4482 10.476C93.9162 11.424 94.1502 12.54 94.1502 13.824H84.7902V11.826H92.5302L91.3602 12.546C91.3122 11.946 91.1622 11.436 90.9102 11.016C90.6702 10.596 90.3402 10.272 89.9202 10.044C89.5002 9.816 89.0082 9.702 88.4442 9.702C87.8322 9.702 87.2982 9.828 86.8422 10.08C86.3982 10.32 86.0502 10.662 85.7982 11.106C85.5582 11.538 85.4382 12.048 85.4382 12.636C85.4382 13.344 85.5942 13.95 85.9062 14.454C86.2182 14.958 86.6742 15.342 87.2742 15.606C87.8742 15.87 88.6002 16.002 89.4522 16.002C90.2202 16.002 90.9942 15.894 91.7742 15.678C92.5542 15.45 93.2562 15.132 93.8802 14.724V16.74C93.2082 17.22 92.4222 17.598 91.5222 17.874C90.6342 18.138 89.6922 18.27 88.6962 18.27ZM107.122 14.778C107.122 15.51 106.906 16.14 106.474 16.668C106.054 17.196 105.424 17.598 104.584 17.874C103.744 18.138 102.718 18.27 101.506 18.27C100.258 18.27 99.1724 18.12 98.2484 17.82C97.3244 17.508 96.6044 17.07 96.0884 16.506C95.5724 15.942 95.2964 15.288 95.2604 14.544H98.3204C98.3924 14.88 98.5724 15.174 98.8604 15.426C99.1484 15.666 99.5204 15.852 99.9764 15.984C100.444 16.116 100.984 16.182 101.596 16.182C102.448 16.182 103.09 16.086 103.522 15.894C103.966 15.702 104.188 15.414 104.188 15.03C104.188 14.754 104.032 14.544 103.72 14.4C103.42 14.256 102.862 14.148 102.046 14.076L100.138 13.932C98.9984 13.836 98.0924 13.644 97.4204 13.356C96.7484 13.068 96.2684 12.708 95.9804 12.276C95.7044 11.832 95.5664 11.346 95.5664 10.818C95.5664 10.086 95.7944 9.474 96.2504 8.982C96.7064 8.49 97.3424 8.118 98.1584 7.866C98.9864 7.614 99.9404 7.488 101.02 7.488C102.124 7.488 103.108 7.638 103.972 7.938C104.836 8.238 105.526 8.652 106.042 9.18C106.57 9.708 106.87 10.32 106.942 11.016H103.882C103.834 10.764 103.696 10.53 103.468 10.314C103.252 10.086 102.934 9.9 102.514 9.756C102.094 9.612 101.548 9.54 100.876 9.54C100.12 9.54 99.5384 9.63 99.1304 9.81C98.7224 9.978 98.5184 10.236 98.5184 10.584C98.5184 10.824 98.6444 11.022 98.8964 11.178C99.1484 11.322 99.6164 11.424 100.3 11.484L102.784 11.682C103.888 11.778 104.758 11.964 105.394 12.24C106.03 12.504 106.474 12.852 106.726 13.284C106.99 13.716 107.122 14.214 107.122 14.778ZM120.6 13.824C120.48 14.7 120.138 15.474 119.574 16.146C119.022 16.818 118.308 17.34 117.432 17.712C116.556 18.084 115.578 18.27 114.498 18.27C113.274 18.27 112.194 18.048 111.258 17.604C110.334 17.148 109.608 16.512 109.08 15.696C108.564 14.88 108.306 13.944 108.306 12.888C108.306 11.82 108.564 10.884 109.08 10.08C109.608 9.264 110.334 8.628 111.258 8.172C112.194 7.716 113.274 7.488 114.498 7.488C115.578 7.488 116.556 7.68 117.432 8.064C118.308 8.436 119.022 8.958 119.574 9.63C120.138 10.29 120.48 11.064 120.6 11.952H117.594C117.438 11.256 117.078 10.722 116.514 10.35C115.962 9.966 115.29 9.774 114.498 9.774C113.862 9.774 113.304 9.9 112.824 10.152C112.356 10.392 111.996 10.746 111.744 11.214C111.492 11.67 111.366 12.228 111.366 12.888C111.366 13.536 111.492 14.094 111.744 14.562C111.996 15.018 112.356 15.372 112.824 15.624C113.304 15.864 113.862 15.984 114.498 15.984C115.302 15.984 115.98 15.786 116.532 15.39C117.096 14.994 117.45 14.472 117.594 13.824H120.6ZM121.719 7.758H124.761L125.373 11.448V18H122.367V11.124L121.719 7.758ZM130.359 7.65V10.242C130.047 10.17 129.735 10.116 129.423 10.08C129.111 10.044 128.817 10.026 128.541 10.026C127.941 10.026 127.401 10.152 126.921 10.404C126.441 10.656 126.063 11.046 125.787 11.574C125.511 12.102 125.373 12.768 125.373 13.572L124.743 12.816C124.815 12.084 124.947 11.4 125.139 10.764C125.331 10.116 125.595 9.552 125.931 9.072C126.279 8.58 126.705 8.196 127.209 7.92C127.713 7.632 128.313 7.488 129.009 7.488C129.237 7.488 129.465 7.506 129.693 7.542C129.933 7.566 130.155 7.602 130.359 7.65ZM131.75 7.65L133.244 7.938L134.756 7.65V18H131.75V7.65ZM133.244 6.588C132.704 6.588 132.26 6.45 131.912 6.174C131.576 5.886 131.408 5.508 131.408 5.04C131.408 4.56 131.576 4.182 131.912 3.906C132.26 3.618 132.704 3.474 133.244 3.474C133.796 3.474 134.24 3.618 134.576 3.906C134.912 4.182 135.08 4.56 135.08 5.04C135.08 5.508 134.912 5.886 134.576 6.174C134.24 6.45 133.796 6.588 133.244 6.588ZM137.024 7.758H140.03V11.016L139.904 11.412V13.878L140.03 14.616V20.97H137.024V7.758ZM138.986 12.888C139.19 11.796 139.544 10.848 140.048 10.044C140.564 9.228 141.206 8.598 141.974 8.154C142.754 7.71 143.618 7.488 144.566 7.488C145.574 7.488 146.456 7.716 147.212 8.172C147.98 8.616 148.58 9.246 149.012 10.062C149.444 10.866 149.66 11.808 149.66 12.888C149.66 13.956 149.444 14.898 149.012 15.714C148.58 16.518 147.98 17.148 147.212 17.604C146.456 18.048 145.574 18.27 144.566 18.27C143.606 18.27 142.742 18.048 141.974 17.604C141.218 17.16 140.582 16.536 140.066 15.732C139.55 14.916 139.19 13.968 138.986 12.888ZM146.618 12.888C146.618 12.288 146.492 11.76 146.24 11.304C146 10.836 145.664 10.476 145.232 10.224C144.8 9.96 144.302 9.828 143.738 9.828C143.174 9.828 142.64 9.96 142.136 10.224C141.632 10.476 141.188 10.836 140.804 11.304C140.432 11.76 140.138 12.288 139.922 12.888C140.138 13.488 140.432 14.016 140.804 14.472C141.188 14.928 141.632 15.288 142.136 15.552C142.64 15.804 143.174 15.93 143.738 15.93C144.302 15.93 144.8 15.804 145.232 15.552C145.664 15.288 146 14.928 146.24 14.472C146.492 14.016 146.618 13.488 146.618 12.888ZM150.218 10.026V8.694L152.36 7.992L153.638 5.058H155.366V7.758H159.902V10.026H155.366V13.752C155.366 14.544 155.528 15.102 155.852 15.426C156.188 15.738 156.764 15.894 157.58 15.894C158.096 15.894 158.552 15.846 158.948 15.75C159.344 15.654 159.722 15.516 160.082 15.336V17.676C159.734 17.82 159.272 17.952 158.696 18.072C158.12 18.204 157.526 18.27 156.914 18.27C155.846 18.27 154.976 18.102 154.304 17.766C153.644 17.418 153.152 16.938 152.828 16.326C152.516 15.714 152.36 15 152.36 14.184V10.026H150.218ZM161.686 7.65L163.18 7.938L164.692 7.65V18H161.686V7.65ZM163.18 6.588C162.64 6.588 162.196 6.45 161.848 6.174C161.512 5.886 161.344 5.508 161.344 5.04C161.344 4.56 161.512 4.182 161.848 3.906C162.196 3.618 162.64 3.474 163.18 3.474C163.732 3.474 164.176 3.618 164.512 3.906C164.848 4.182 165.016 4.56 165.016 5.04C165.016 5.508 164.848 5.886 164.512 6.174C164.176 6.45 163.732 6.588 163.18 6.588ZM172.827 18.27C171.555 18.27 170.439 18.048 169.479 17.604C168.519 17.148 167.769 16.518 167.229 15.714C166.689 14.898 166.419 13.956 166.419 12.888C166.419 11.808 166.689 10.866 167.229 10.062C167.769 9.246 168.519 8.616 169.479 8.172C170.439 7.716 171.555 7.488 172.827 7.488C174.099 7.488 175.215 7.716 176.175 8.172C177.135 8.616 177.879 9.246 178.407 10.062C178.947 10.866 179.217 11.808 179.217 12.888C179.217 13.956 178.947 14.898 178.407 15.714C177.879 16.518 177.135 17.148 176.175 17.604C175.215 18.048 174.099 18.27 172.827 18.27ZM172.827 15.984C173.523 15.984 174.117 15.858 174.609 15.606C175.113 15.354 175.497 15 175.761 14.544C176.037 14.076 176.175 13.524 176.175 12.888C176.175 12.24 176.037 11.688 175.761 11.232C175.497 10.764 175.113 10.404 174.609 10.152C174.117 9.9 173.523 9.774 172.827 9.774C172.143 9.774 171.549 9.9 171.045 10.152C170.541 10.404 170.151 10.764 169.875 11.232C169.611 11.688 169.479 12.24 169.479 12.888C169.479 13.524 169.611 14.076 169.875 14.544C170.151 15 170.541 15.354 171.045 15.606C171.549 15.858 172.143 15.984 172.827 15.984ZM180.448 7.758H183.454L184.102 11.664V18H181.096V11.214L180.448 7.758ZM188.008 7.488C188.98 7.488 189.808 7.686 190.492 8.082C191.176 8.466 191.698 9.018 192.058 9.738C192.418 10.458 192.598 11.316 192.598 12.312V18H189.592V12.762C189.592 11.838 189.37 11.142 188.926 10.674C188.482 10.194 187.834 9.954 186.982 9.954C186.406 9.954 185.896 10.086 185.452 10.35C185.02 10.602 184.684 10.956 184.444 11.412C184.216 11.868 184.102 12.414 184.102 13.05L183.112 12.528C183.232 11.448 183.52 10.536 183.976 9.792C184.432 9.048 185.008 8.478 185.704 8.082C186.4 7.686 187.168 7.488 188.008 7.488Z" fill="white"/>
</svg>
