<svg width="209" height="24" viewBox="0 0 209 24" fill="none" xmlns="http://www.w3.org/2000/svg">
<circle cx="12" cy="12" r="12" fill="white" fill-opacity="0.4"/>
<circle cx="12" cy="12" r="4" fill="white"/>
<path d="M131 12H16" stroke="white" stroke-opacity="0.6" stroke-miterlimit="10" stroke-linecap="round"/>
<path d="M141.503 4.5H144.563V18H141.503V4.5ZM146.478 7.758H149.484L150.132 11.664V18H147.126V11.214L146.478 7.758ZM153.786 7.488C154.698 7.488 155.478 7.686 156.126 8.082C156.774 8.466 157.266 9.018 157.602 9.738C157.95 10.458 158.124 11.316 158.124 12.312V18H155.118V12.762C155.118 11.838 154.914 11.142 154.506 10.674C154.11 10.194 153.528 9.954 152.76 9.954C152.22 9.954 151.752 10.086 151.356 10.35C150.96 10.602 150.654 10.956 150.438 11.412C150.234 11.868 150.132 12.414 150.132 13.05L149.142 12.528C149.262 11.448 149.538 10.536 149.97 9.792C150.402 9.048 150.942 8.478 151.59 8.082C152.25 7.686 152.982 7.488 153.786 7.488ZM161.76 7.488C162.672 7.488 163.452 7.686 164.1 8.082C164.76 8.466 165.258 9.018 165.594 9.738C165.942 10.458 166.116 11.316 166.116 12.312V18H163.11V12.762C163.11 11.838 162.906 11.142 162.498 10.674C162.102 10.194 161.52 9.954 160.752 9.954C160.212 9.954 159.744 10.086 159.348 10.35C158.952 10.602 158.646 10.956 158.43 11.412C158.226 11.868 158.124 12.414 158.124 13.05L157.134 12.528C157.254 11.448 157.53 10.536 157.962 9.792C158.394 9.048 158.934 8.478 159.582 8.082C160.242 7.686 160.968 7.488 161.76 7.488ZM177.612 18L177.18 14.256L177.666 12.888L177.18 11.538L177.612 7.758H180.726L180.132 12.888L180.726 18H177.612ZM178.404 12.888C178.212 13.968 177.858 14.916 177.342 15.732C176.838 16.536 176.196 17.16 175.416 17.604C174.648 18.048 173.784 18.27 172.824 18.27C171.828 18.27 170.946 18.048 170.178 17.604C169.41 17.148 168.81 16.518 168.378 15.714C167.958 14.898 167.748 13.956 167.748 12.888C167.748 11.808 167.958 10.866 168.378 10.062C168.81 9.246 169.41 8.616 170.178 8.172C170.946 7.716 171.828 7.488 172.824 7.488C173.784 7.488 174.648 7.71 175.416 8.154C176.196 8.598 176.844 9.228 177.36 10.044C177.876 10.848 178.224 11.796 178.404 12.888ZM170.79 12.888C170.79 13.488 170.91 14.016 171.15 14.472C171.402 14.928 171.744 15.288 172.176 15.552C172.608 15.804 173.106 15.93 173.67 15.93C174.234 15.93 174.762 15.804 175.254 15.552C175.758 15.288 176.202 14.928 176.586 14.472C176.97 14.016 177.27 13.488 177.486 12.888C177.27 12.288 176.97 11.76 176.586 11.304C176.202 10.836 175.758 10.476 175.254 10.224C174.762 9.96 174.234 9.828 173.67 9.828C173.106 9.828 172.608 9.96 172.176 10.224C171.744 10.476 171.402 10.836 171.15 11.304C170.91 11.76 170.79 12.288 170.79 12.888ZM191.808 15.462V13.68L191.916 13.302V11.07L191.808 10.692V7.758H194.814V15.264C194.814 16.56 194.526 17.652 193.95 18.54C193.386 19.428 192.6 20.1 191.592 20.556C190.584 21.012 189.414 21.24 188.082 21.24C187.146 21.24 186.282 21.12 185.49 20.88C184.71 20.64 183.942 20.274 183.186 19.782V17.424C183.918 17.988 184.68 18.39 185.472 18.63C186.276 18.87 187.086 18.99 187.902 18.99C189.162 18.99 190.128 18.696 190.8 18.108C191.472 17.52 191.808 16.638 191.808 15.462ZM187.146 17.064C186.198 17.064 185.346 16.866 184.59 16.47C183.846 16.074 183.258 15.516 182.826 14.796C182.394 14.076 182.178 13.236 182.178 12.276C182.178 11.316 182.394 10.482 182.826 9.774C183.258 9.054 183.846 8.496 184.59 8.1C185.346 7.692 186.198 7.488 187.146 7.488C187.866 7.488 188.52 7.602 189.108 7.83C189.708 8.046 190.242 8.334 190.71 8.694C191.19 9.054 191.592 9.45 191.916 9.882C192.24 10.302 192.486 10.728 192.654 11.16C192.834 11.58 192.924 11.964 192.924 12.312C192.924 12.756 192.786 13.254 192.51 13.806C192.246 14.358 191.862 14.88 191.358 15.372C190.854 15.864 190.248 16.272 189.54 16.596C188.832 16.908 188.034 17.064 187.146 17.064ZM188.136 14.94C188.916 14.94 189.618 14.73 190.242 14.31C190.878 13.878 191.436 13.2 191.916 12.276C191.436 11.34 190.878 10.662 190.242 10.242C189.606 9.81 188.904 9.594 188.136 9.594C187.524 9.594 186.996 9.708 186.552 9.936C186.12 10.152 185.784 10.464 185.544 10.872C185.316 11.268 185.202 11.736 185.202 12.276C185.202 12.804 185.316 13.272 185.544 13.68C185.772 14.076 186.108 14.388 186.552 14.616C186.996 14.832 187.524 14.94 188.136 14.94ZM202.805 18.27C201.593 18.27 200.507 18.048 199.547 17.604C198.599 17.148 197.849 16.512 197.297 15.696C196.757 14.88 196.487 13.932 196.487 12.852C196.487 11.784 196.745 10.848 197.261 10.044C197.789 9.24 198.509 8.616 199.421 8.172C200.333 7.716 201.371 7.488 202.535 7.488C203.723 7.488 204.743 7.752 205.595 8.28C206.447 8.796 207.101 9.528 207.557 10.476C208.025 11.424 208.259 12.54 208.259 13.824H198.899V11.826H206.639L205.469 12.546C205.421 11.946 205.271 11.436 205.019 11.016C204.779 10.596 204.449 10.272 204.029 10.044C203.609 9.816 203.117 9.702 202.553 9.702C201.941 9.702 201.407 9.828 200.951 10.08C200.507 10.32 200.159 10.662 199.907 11.106C199.667 11.538 199.547 12.048 199.547 12.636C199.547 13.344 199.703 13.95 200.015 14.454C200.327 14.958 200.783 15.342 201.383 15.606C201.983 15.87 202.709 16.002 203.561 16.002C204.329 16.002 205.103 15.894 205.883 15.678C206.663 15.45 207.365 15.132 207.989 14.724V16.74C207.317 17.22 206.531 17.598 205.631 17.874C204.743 18.138 203.801 18.27 202.805 18.27Z" fill="white"/>
</svg>
