<svg width="224" height="48" viewBox="0 0 224 48" fill="none" xmlns="http://www.w3.org/2000/svg">
<ellipse cx="209.599" cy="34.75" rx="5.5993" ry="5.25" fill="white"/>
<ellipse cx="220.048" cy="25.75" rx="3.95245" ry="3.75" fill="white"/>
<ellipse cx="211.813" cy="17.875" rx="3.62308" ry="3.375" fill="white"/>
<ellipse cx="217.741" cy="9.25" rx="2.30559" ry="2.25" fill="white"/>
<path d="M7.9 17.15H12.125V34H7.9V17.15ZM0.425 15.25H19.575V19H0.425V15.25ZM25.5395 34.375C23.7728 34.375 22.2228 34.0667 20.8895 33.45C19.5561 32.8167 18.5145 31.9417 17.7645 30.825C17.0145 29.6917 16.6395 28.3833 16.6395 26.9C16.6395 25.4 17.0145 24.0917 17.7645 22.975C18.5145 21.8417 19.5561 20.9667 20.8895 20.35C22.2228 19.7167 23.7728 19.4 25.5395 19.4C27.3061 19.4 28.8561 19.7167 30.1895 20.35C31.5228 20.9667 32.5561 21.8417 33.2895 22.975C34.0395 24.0917 34.4145 25.4 34.4145 26.9C34.4145 28.3833 34.0395 29.6917 33.2895 30.825C32.5561 31.9417 31.5228 32.8167 30.1895 33.45C28.8561 34.0667 27.3061 34.375 25.5395 34.375ZM25.5395 31.2C26.5061 31.2 27.3311 31.025 28.0145 30.675C28.7145 30.325 29.2478 29.8333 29.6145 29.2C29.9978 28.55 30.1895 27.7833 30.1895 26.9C30.1895 26 29.9978 25.2333 29.6145 24.6C29.2478 23.95 28.7145 23.45 28.0145 23.1C27.3311 22.75 26.5061 22.575 25.5395 22.575C24.5895 22.575 23.7645 22.75 23.0645 23.1C22.3645 23.45 21.8228 23.95 21.4395 24.6C21.0728 25.2333 20.8895 26 20.8895 26.9C20.8895 27.7833 21.0728 28.55 21.4395 29.2C21.8228 29.8333 22.3645 30.325 23.0645 30.675C23.7645 31.025 24.5895 31.2 25.5395 31.2ZM35.8736 19.775H40.0486L40.9486 25.2V34H36.7736V24.575L35.8736 19.775ZM46.3736 19.4C47.7236 19.4 48.8736 19.675 49.8236 20.225C50.7736 20.7583 51.4986 21.525 51.9986 22.525C52.4986 23.525 52.7486 24.7167 52.7486 26.1V34H48.5736V26.725C48.5736 25.4417 48.2653 24.475 47.6486 23.825C47.032 23.1583 46.132 22.825 44.9486 22.825C44.1486 22.825 43.4403 23.0083 42.8236 23.375C42.2236 23.725 41.757 24.2167 41.4236 24.85C41.107 25.4833 40.9486 26.2417 40.9486 27.125L39.5736 26.4C39.7403 24.9 40.1403 23.6333 40.7736 22.6C41.407 21.5667 42.207 20.775 43.1736 20.225C44.1403 19.675 45.207 19.4 46.3736 19.4ZM55.4393 19.625L57.5143 20.025L59.6143 19.625V34H55.4393V19.625ZM57.5143 18.15C56.7643 18.15 56.1476 17.9583 55.6643 17.575C55.1976 17.175 54.9643 16.65 54.9643 16C54.9643 15.3333 55.1976 14.8083 55.6643 14.425C56.1476 14.025 56.7643 13.825 57.5143 13.825C58.2809 13.825 58.8976 14.025 59.3643 14.425C59.8309 14.8083 60.0643 15.3333 60.0643 16C60.0643 16.65 59.8309 17.175 59.3643 17.575C58.8976 17.9583 58.2809 18.15 57.5143 18.15ZM78.8385 28.2C78.6718 29.4167 78.1968 30.4917 77.4135 31.425C76.6468 32.3583 75.6551 33.0833 74.4385 33.6C73.2218 34.1167 71.8635 34.375 70.3635 34.375C68.6635 34.375 67.1635 34.0667 65.8635 33.45C64.5801 32.8167 63.5718 31.9333 62.8385 30.8C62.1218 29.6667 61.7635 28.3667 61.7635 26.9C61.7635 25.4167 62.1218 24.1167 62.8385 23C63.5718 21.8667 64.5801 20.9833 65.8635 20.35C67.1635 19.7167 68.6635 19.4 70.3635 19.4C71.8635 19.4 73.2218 19.6667 74.4385 20.2C75.6551 20.7167 76.6468 21.4417 77.4135 22.375C78.1968 23.2917 78.6718 24.3667 78.8385 25.6H74.6635C74.4468 24.6333 73.9468 23.8917 73.1635 23.375C72.3968 22.8417 71.4635 22.575 70.3635 22.575C69.4801 22.575 68.7051 22.75 68.0385 23.1C67.3885 23.4333 66.8885 23.925 66.5385 24.575C66.1885 25.2083 66.0135 25.9833 66.0135 26.9C66.0135 27.8 66.1885 28.575 66.5385 29.225C66.8885 29.8583 67.3885 30.35 68.0385 30.7C68.7051 31.0333 69.4801 31.2 70.3635 31.2C71.4801 31.2 72.4218 30.925 73.1885 30.375C73.9718 29.825 74.4635 29.1 74.6635 28.2H78.8385ZM91.5891 15.25V32.125L89.6641 30.25H103.739V34H87.3391V15.25H91.5891ZM113.126 34.375C111.36 34.375 109.81 34.0667 108.476 33.45C107.143 32.8167 106.101 31.9417 105.351 30.825C104.601 29.6917 104.226 28.3833 104.226 26.9C104.226 25.4 104.601 24.0917 105.351 22.975C106.101 21.8417 107.143 20.9667 108.476 20.35C109.81 19.7167 111.36 19.4 113.126 19.4C114.893 19.4 116.443 19.7167 117.776 20.35C119.11 20.9667 120.143 21.8417 120.876 22.975C121.626 24.0917 122.001 25.4 122.001 26.9C122.001 28.3833 121.626 29.6917 120.876 30.825C120.143 31.9417 119.11 32.8167 117.776 33.45C116.443 34.0667 114.893 34.375 113.126 34.375ZM113.126 31.2C114.093 31.2 114.918 31.025 115.601 30.675C116.301 30.325 116.835 29.8333 117.201 29.2C117.585 28.55 117.776 27.7833 117.776 26.9C117.776 26 117.585 25.2333 117.201 24.6C116.835 23.95 116.301 23.45 115.601 23.1C114.918 22.75 114.093 22.575 113.126 22.575C112.176 22.575 111.351 22.75 110.651 23.1C109.951 23.45 109.41 23.95 109.026 24.6C108.66 25.2333 108.476 26 108.476 26.9C108.476 27.7833 108.66 28.55 109.026 29.2C109.41 29.8333 109.951 30.325 110.651 30.675C111.351 31.025 112.176 31.2 113.126 31.2ZM130.209 34.375C128.893 34.375 127.768 34.1083 126.834 33.575C125.918 33.025 125.209 32.25 124.709 31.25C124.226 30.25 123.984 29.0667 123.984 27.7V19.775H128.159V27.075C128.159 28.3417 128.459 29.3083 129.059 29.975C129.659 30.625 130.509 30.95 131.609 30.95C132.426 30.95 133.118 30.7833 133.684 30.45C134.268 30.1 134.718 29.6 135.034 28.95C135.351 28.3 135.509 27.5417 135.509 26.675L136.859 27.4C136.693 28.8667 136.301 30.125 135.684 31.175C135.068 32.2083 134.284 33 133.334 33.55C132.401 34.1 131.359 34.375 130.209 34.375ZM136.384 34L135.509 28.6V19.775H139.684V29.225L140.559 34H136.384ZM142.107 19.775H146.282L147.182 25.2V34H143.007V24.575L142.107 19.775ZM152.607 19.4C153.957 19.4 155.107 19.675 156.057 20.225C157.007 20.7583 157.732 21.525 158.232 22.525C158.732 23.525 158.982 24.7167 158.982 26.1V34H154.807V26.725C154.807 25.4417 154.499 24.475 153.882 23.825C153.265 23.1583 152.365 22.825 151.182 22.825C150.382 22.825 149.674 23.0083 149.057 23.375C148.457 23.725 147.99 24.2167 147.657 24.85C147.34 25.4833 147.182 26.2417 147.182 27.125L145.807 26.4C145.974 24.9 146.374 23.6333 147.007 22.6C147.64 21.5667 148.44 20.775 149.407 20.225C150.374 19.675 151.44 19.4 152.607 19.4ZM174.323 30.475V28L174.473 27.475V24.375L174.323 23.85V19.775H178.498V30.2C178.498 32 178.098 33.5167 177.298 34.75C176.514 35.9833 175.423 36.9167 174.023 37.55C172.623 38.1833 170.998 38.5 169.148 38.5C167.848 38.5 166.648 38.3333 165.548 38C164.464 37.6667 163.398 37.1583 162.348 36.475V33.2C163.364 33.9833 164.423 34.5417 165.523 34.875C166.639 35.2083 167.764 35.375 168.898 35.375C170.648 35.375 171.989 34.9667 172.923 34.15C173.856 33.3333 174.323 32.1083 174.323 30.475ZM167.848 32.7C166.531 32.7 165.348 32.425 164.298 31.875C163.264 31.325 162.448 30.55 161.848 29.55C161.248 28.55 160.948 27.3833 160.948 26.05C160.948 24.7167 161.248 23.5583 161.848 22.575C162.448 21.575 163.264 20.8 164.298 20.25C165.348 19.6833 166.531 19.4 167.848 19.4C168.848 19.4 169.756 19.5583 170.573 19.875C171.406 20.175 172.148 20.575 172.798 21.075C173.464 21.575 174.023 22.125 174.473 22.725C174.923 23.3083 175.264 23.9 175.498 24.5C175.748 25.0833 175.873 25.6167 175.873 26.1C175.873 26.7167 175.681 27.4083 175.298 28.175C174.931 28.9417 174.398 29.6667 173.698 30.35C172.998 31.0333 172.156 31.6 171.173 32.05C170.189 32.4833 169.081 32.7 167.848 32.7ZM169.223 29.75C170.306 29.75 171.281 29.4583 172.148 28.875C173.031 28.275 173.806 27.3333 174.473 26.05C173.806 24.75 173.031 23.8083 172.148 23.225C171.264 22.625 170.289 22.325 169.223 22.325C168.373 22.325 167.639 22.4833 167.023 22.8C166.423 23.1 165.956 23.5333 165.623 24.1C165.306 24.65 165.148 25.3 165.148 26.05C165.148 26.7833 165.306 27.4333 165.623 28C165.939 28.55 166.406 28.9833 167.023 29.3C167.639 29.6 168.373 29.75 169.223 29.75ZM189.345 34.375C187.662 34.375 186.153 34.0667 184.82 33.45C183.503 32.8167 182.462 31.9333 181.695 30.8C180.945 29.6667 180.57 28.35 180.57 26.85C180.57 25.3667 180.928 24.0667 181.645 22.95C182.378 21.8333 183.378 20.9667 184.645 20.35C185.912 19.7167 187.353 19.4 188.97 19.4C190.62 19.4 192.037 19.7667 193.22 20.5C194.403 21.2167 195.312 22.2333 195.945 23.55C196.595 24.8667 196.92 26.4167 196.92 28.2H183.92V25.425H194.67L193.045 26.425C192.978 25.5917 192.77 24.8833 192.42 24.3C192.087 23.7167 191.628 23.2667 191.045 22.95C190.462 22.6333 189.778 22.475 188.995 22.475C188.145 22.475 187.403 22.65 186.77 23C186.153 23.3333 185.67 23.8083 185.32 24.425C184.987 25.025 184.82 25.7333 184.82 26.55C184.82 27.5333 185.037 28.375 185.47 29.075C185.903 29.775 186.537 30.3083 187.37 30.675C188.203 31.0417 189.212 31.225 190.395 31.225C191.462 31.225 192.537 31.075 193.62 30.775C194.703 30.4583 195.678 30.0167 196.545 29.45V32.25C195.612 32.9167 194.52 33.4417 193.27 33.825C192.037 34.1917 190.728 34.375 189.345 34.375Z" fill="white"/>
</svg>
