<svg width="24" height="24" viewBox="0 0 24 24" fill="none" xmlns="http://www.w3.org/2000/svg">
<rect width="24" height="24" rx="8" fill="white"/>
<path d="M6.63127 10.3972C6.68727 9.57585 6.95794 8.86652 7.44327 8.26919C7.92861 7.66252 8.57261 7.20052 9.37527 6.88319C10.1873 6.55652 11.1019 6.39319 12.1193 6.39319C13.0899 6.39319 13.9346 6.54252 14.6533 6.84119C15.3813 7.13052 15.9459 7.53652 16.3473 8.05919C16.7486 8.58185 16.9493 9.18852 16.9493 9.87919C16.9493 10.4112 16.8046 10.9105 16.5153 11.3772C16.2259 11.8345 15.7733 12.2872 15.1573 12.7352C14.5413 13.1739 13.7339 13.6359 12.7353 14.1212L9.85127 15.5632L9.73927 14.8212H17.2433V17.1172H6.85527V15.1012L11.3633 12.5672C12.0633 12.1659 12.6046 11.8299 12.9873 11.5592C13.3793 11.2792 13.6546 11.0225 13.8133 10.7892C13.9813 10.5559 14.0653 10.3085 14.0653 10.0472C14.0653 9.75785 13.9859 9.51052 13.8273 9.30519C13.6779 9.09052 13.4493 8.92252 13.1413 8.80119C12.8333 8.67985 12.4553 8.61919 12.0073 8.61919C11.4473 8.61919 10.9899 8.70319 10.6353 8.87119C10.2806 9.02985 10.0146 9.24452 9.83727 9.51519C9.65994 9.77652 9.55261 10.0705 9.51527 10.3972H6.63127Z" fill="#0595D9"/>
</svg>
