<svg width="16" height="16" viewBox="0 0 16 16" fill="none" xmlns="http://www.w3.org/2000/svg">
<path d="M0.980919 7.09488L10.5116 3.16808C11.4524 2.75904 14.6429 1.45011 14.6429 1.45011C14.6429 1.45011 16.1154 0.877451 15.9927 2.26819C15.9518 2.84085 15.6246 4.84515 15.2974 7.01307L14.2748 13.435C14.2748 13.435 14.193 14.3758 13.4976 14.5394C12.8022 14.703 11.6569 13.9668 11.4524 13.8032C11.2888 13.6804 8.38457 11.8398 7.32106 10.9399C7.03473 10.6944 6.7075 10.2036 7.36196 9.63094C8.83451 8.2811 10.5934 6.60403 11.6569 5.54052C12.1477 5.04967 12.6386 3.90436 10.5934 5.2951L4.82591 9.18099C4.82591 9.18099 4.17144 9.59003 2.94432 9.22189C1.71719 8.85376 0.285549 8.36291 0.285549 8.36291C0.285549 8.36291 -0.69615 7.74934 0.980919 7.09488Z" fill="#2AABEE"/>
</svg>
