<svg width="24" height="24" viewBox="0 0 24 24" fill="none" xmlns="http://www.w3.org/2000/svg">
<rect width="24" height="24" rx="8" fill="white"/>
<path d="M6.78593 10.0052C6.84193 9.34252 7.07993 8.74052 7.49993 8.19919C7.91993 7.64852 8.5266 7.20985 9.31993 6.88319C10.1133 6.55652 11.0793 6.39319 12.2179 6.39319C13.1886 6.39319 14.0333 6.51452 14.7519 6.75719C15.4799 6.99985 16.0399 7.34052 16.4319 7.77919C16.8333 8.21785 17.0339 8.73585 17.0339 9.33319C17.0339 9.79985 16.8893 10.2292 16.5999 10.6212C16.3199 11.0132 15.8719 11.3259 15.2559 11.5592C14.6493 11.7832 13.8559 11.8905 12.8759 11.8812V11.5872C13.7906 11.5499 14.5746 11.6152 15.2279 11.7832C15.8813 11.9512 16.3806 12.2265 16.7259 12.6092C17.0806 12.9919 17.2579 13.4772 17.2579 14.0652C17.2579 14.6999 17.0526 15.2645 16.6419 15.7592C16.2313 16.2539 15.6339 16.6412 14.8499 16.9212C14.0753 17.2012 13.1233 17.3412 11.9939 17.3412C10.9019 17.3412 9.94993 17.1919 9.13793 16.8932C8.32593 16.5945 7.69126 16.1699 7.23393 15.6192C6.78593 15.0592 6.54793 14.4059 6.51993 13.6592H9.40393C9.4786 14.1259 9.72126 14.4852 10.1319 14.7372C10.5519 14.9892 11.1726 15.1152 11.9939 15.1152C12.7406 15.1152 13.3099 15.0032 13.7019 14.7792C14.1033 14.5552 14.3039 14.2425 14.3039 13.8412C14.3039 13.6079 14.2386 13.4119 14.1079 13.2532C13.9866 13.0945 13.7673 12.9779 13.4499 12.9032C13.1326 12.8192 12.6893 12.7772 12.1199 12.7772H10.3139V10.8172H12.1199C12.8573 10.8172 13.3706 10.7192 13.6599 10.5232C13.9586 10.3272 14.1079 10.0659 14.1079 9.73919C14.1079 9.38452 13.9353 9.10919 13.5899 8.91319C13.2539 8.71719 12.7453 8.61919 12.0639 8.61919C11.3359 8.61919 10.7759 8.74052 10.3839 8.98319C9.99193 9.22585 9.7586 9.56652 9.68393 10.0052H6.78593Z" fill="#0595D9"/>
</svg>
