<svg width="110" height="24" viewBox="0 0 110 24" fill="none" xmlns="http://www.w3.org/2000/svg">
<circle cx="12" cy="12" r="12" fill="white" fill-opacity="0.4"/>
<circle cx="12" cy="12" r="4" fill="white"/>
<path d="M53 12L12 12" stroke="white" stroke-opacity="0.6" stroke-miterlimit="10" stroke-linecap="round"/>
<path d="M67.0005 5.868H70.0425V18H67.0005V5.868ZM61.6185 4.5H75.4065V7.2H61.6185V4.5ZM76.8606 7.65L78.3546 7.938L79.8666 7.65V18H76.8606V7.65ZM78.3546 6.588C77.8146 6.588 77.3706 6.45 77.0226 6.174C76.6866 5.886 76.5186 5.508 76.5186 5.04C76.5186 4.56 76.6866 4.182 77.0226 3.906C77.3706 3.618 77.8146 3.474 78.3546 3.474C78.9066 3.474 79.3506 3.618 79.6866 3.906C80.0226 4.182 80.1906 4.56 80.1906 5.04C80.1906 5.508 80.0226 5.886 79.6866 6.174C79.3506 6.45 78.9066 6.588 78.3546 6.588ZM81.09 10.026V8.694L83.232 7.992L84.51 5.058H86.238V7.758H90.774V10.026H86.238V13.752C86.238 14.544 86.4 15.102 86.724 15.426C87.06 15.738 87.636 15.894 88.452 15.894C88.968 15.894 89.424 15.846 89.82 15.75C90.216 15.654 90.594 15.516 90.954 15.336V17.676C90.606 17.82 90.144 17.952 89.568 18.072C88.992 18.204 88.398 18.27 87.786 18.27C86.718 18.27 85.848 18.102 85.176 17.766C84.516 17.418 84.024 16.938 83.7 16.326C83.388 15.714 83.232 15 83.232 14.184V10.026H81.09ZM92.5578 4.14H95.5638V18H92.5578V4.14ZM103.609 18.27C102.397 18.27 101.311 18.048 100.351 17.604C99.4033 17.148 98.6533 16.512 98.1013 15.696C97.5613 14.88 97.2913 13.932 97.2913 12.852C97.2913 11.784 97.5493 10.848 98.0653 10.044C98.5933 9.24 99.3133 8.616 100.225 8.172C101.137 7.716 102.175 7.488 103.339 7.488C104.527 7.488 105.547 7.752 106.399 8.28C107.251 8.796 107.905 9.528 108.361 10.476C108.829 11.424 109.063 12.54 109.063 13.824H99.7033V11.826H107.443L106.273 12.546C106.225 11.946 106.075 11.436 105.823 11.016C105.583 10.596 105.253 10.272 104.833 10.044C104.413 9.816 103.921 9.702 103.357 9.702C102.745 9.702 102.211 9.828 101.755 10.08C101.311 10.32 100.963 10.662 100.711 11.106C100.471 11.538 100.351 12.048 100.351 12.636C100.351 13.344 100.507 13.95 100.819 14.454C101.131 14.958 101.587 15.342 102.187 15.606C102.787 15.87 103.513 16.002 104.365 16.002C105.133 16.002 105.907 15.894 106.687 15.678C107.467 15.45 108.169 15.132 108.793 14.724V16.74C108.121 17.22 107.335 17.598 106.435 17.874C105.547 18.138 104.605 18.27 103.609 18.27Z" fill="white"/>
</svg>
