<svg width="16" height="16" viewBox="0 0 16 16" fill="none" xmlns="http://www.w3.org/2000/svg">
<path fill-rule="evenodd" clip-rule="evenodd" d="M2.53058 0H13.4876C13.9063 0 14.2553 0.0698687 14.674 0.279476C15.1625 0.489083 15.4417 0.838428 15.5813 1.1179C15.5813 1.1179 15.5813 1.18777 15.6511 1.18777C15.8604 1.53712 16 1.95633 16 2.44541C16 2.86463 15.9302 3.28384 15.6511 3.70306L8.74187 15.5808C8.60229 15.8603 8.32313 16 7.97418 16C7.69502 16 7.41586 15.8603 7.2065 15.5808L0.436893 3.70306C0.297314 3.42358 0.0181544 3.07424 0.0181544 2.51528C-0.0516353 2.0262 0.0879438 1.60699 0.297313 1.18777C0.506682 0.768559 0.855631 0.419214 1.34416 0.279476C1.7629 -2.70694e-07 2.25143 0 2.53058 0ZM7.13671 1.67686H2.53058C2.25143 1.67686 2.11185 1.67686 2.04206 1.74672C1.90248 1.81659 1.83269 1.88646 1.7629 2.0262C1.69311 2.09607 1.69311 2.23581 1.69311 2.37555C1.69311 2.44541 1.7629 2.51528 1.90248 2.79476L7.13671 11.8777V1.67686ZM8.81166 1.67686V11.9476L14.1157 2.79476C14.1855 2.65502 14.1855 2.51528 14.1855 2.37555C14.1855 2.23581 14.1855 2.09607 14.1157 2.0262C14.0459 1.95633 14.0459 1.88646 13.9761 1.88646L13.9063 1.81659C13.7667 1.74673 13.6271 1.74672 13.4178 1.74672H8.81166V1.67686Z" fill="#2AABEE"/>
</svg>
