<svg width="588" height="128" viewBox="0 0 588 128" fill="none" xmlns="http://www.w3.org/2000/svg">
<path d="M283.329 33.2617H274.479C271.189 33.2617 268.52 30.6686 268.52 27.4802C268.52 24.2851 271.189 21.692 274.479 21.692C274.652 21.692 274.818 21.6988 274.993 21.7146C274.66 20.8472 274.479 19.9143 274.479 18.9306C274.479 14.4502 278.215 10.8135 282.834 10.8135C284.832 10.8135 286.661 11.4968 288.098 12.6352C288.128 6.75098 293.045 1.98372 299.11 1.98372C305.19 1.98372 310.12 6.77357 310.12 12.6793C310.12 13.34 310.052 13.9792 309.932 14.6038C315.209 14.6332 319.482 18.7984 319.482 23.9328C319.482 29.0818 315.187 33.2617 309.878 33.2617H301.028" stroke="white" stroke-width="2.5" stroke-miterlimit="10" stroke-linecap="round" stroke-linejoin="round"/>
<path d="M293.603 22.2891L290.02 26.2705M293.603 22.2891L297.186 26.2705M293.603 22.2891V37.8168" stroke="white" stroke-width="2.5" stroke-miterlimit="10" stroke-linecap="round" stroke-linejoin="round"/>
<path d="M251.716 52.2734V60.3945C251.716 62.0029 250.608 63.1455 248.851 63.1543C247.093 63.1455 245.977 62.0029 245.968 60.3945V52.2734H243.683V60.5879C243.691 63.3213 245.73 65.1934 248.851 65.1934C251.953 65.1934 254.01 63.3213 254.019 60.5879V52.2734H251.716ZM256.269 68.5859H258.519V63.4883H258.606C258.958 64.1914 259.705 65.167 261.349 65.1758C263.599 65.167 265.277 63.374 265.286 60.2363C265.277 57.0547 263.546 55.332 261.349 55.332C259.652 55.332 258.949 56.3428 258.606 57.0195H258.466V55.4551H256.269V68.5859ZM258.466 60.2188C258.475 58.3643 259.266 57.1689 260.733 57.1602C262.236 57.1689 263.001 58.4434 263.001 60.2188C263.001 62.0205 262.219 63.3301 260.733 63.3301C259.283 63.3301 258.475 62.082 258.466 60.2188ZM269.294 52.2734H267.044V65H269.294V52.2734ZM275.604 65.1934C278.399 65.1934 280.184 63.2158 280.175 60.2715C280.184 57.3008 278.399 55.332 275.604 55.332C272.818 55.332 271.034 57.3008 271.034 60.2715C271.034 63.2158 272.818 65.1934 275.604 65.1934ZM273.302 60.2539C273.302 58.5049 274.066 57.0986 275.622 57.1074C277.151 57.0986 277.916 58.5049 277.907 60.2539C277.916 62.0029 277.151 63.4004 275.622 63.4004C274.066 63.4004 273.302 62.0029 273.302 60.2539ZM281.476 62.3105C281.476 64.2002 282.855 65.1934 284.675 65.1934C286.178 65.1934 287.065 64.4902 287.487 63.6816H287.558V65H289.702V58.6191C289.702 56.0791 287.61 55.332 285.8 55.332C283.409 55.332 281.95 56.5537 281.792 58.1797H283.954C284.13 57.4941 284.745 57.0371 285.747 57.0371C286.863 57.0371 287.47 57.582 287.47 58.5312L287.479 59.2959C287.057 59.3135 285.694 59.375 285.026 59.4277C283.26 59.542 281.476 60.166 281.476 62.3105ZM283.638 62.293C283.638 61.458 284.314 61.0098 285.378 60.9219C285.826 60.8867 287.074 60.8076 287.479 60.79L287.487 61.5723C287.487 62.6445 286.617 63.541 285.255 63.541C284.314 63.541 283.638 63.1191 283.638 62.293ZM295.362 65.1758C297.015 65.167 297.744 64.1914 298.104 63.4883H298.228V65H300.425V52.2734H298.192V57.0195H298.104C297.762 56.3428 297.059 55.332 295.38 55.332C293.165 55.332 291.425 57.0547 291.425 60.2363C291.425 63.374 293.121 65.167 295.362 65.1758ZM293.71 60.2188C293.71 58.4434 294.483 57.1689 295.978 57.1602C297.437 57.1689 298.245 58.3643 298.245 60.2188C298.245 62.082 297.428 63.3301 295.978 63.3301C294.501 63.3301 293.71 62.0205 293.71 60.2188ZM306.524 62.3105C306.524 64.2002 307.904 65.1934 309.724 65.1934C311.227 65.1934 312.114 64.4902 312.536 63.6816H312.606V65H314.751V58.6191C314.751 56.0791 312.659 55.332 310.849 55.332C308.458 55.332 306.999 56.5537 306.841 58.1797H309.003C309.179 57.4941 309.794 57.0371 310.796 57.0371C311.912 57.0371 312.519 57.582 312.519 58.5312L312.527 59.2959C312.105 59.3135 310.743 59.375 310.075 59.4277C308.309 59.542 306.524 60.166 306.524 62.3105ZM308.687 62.293C308.687 61.458 309.363 61.0098 310.427 60.9219C310.875 60.8867 312.123 60.8076 312.527 60.79L312.536 61.5723C312.536 62.6445 311.666 63.541 310.304 63.541C309.363 63.541 308.687 63.1191 308.687 62.293ZM325.966 55.4551H323.997V54.752C323.988 53.8818 324.445 53.5303 325.351 53.5215C325.518 53.5303 325.79 53.5391 326.159 53.5918V51.8164C325.737 51.7285 325.254 51.6758 324.735 51.6758C322.898 51.6758 321.747 52.6865 321.747 54.541V55.4551H320.323V57.1777H321.747V65H323.997V57.1777H325.966V55.4551ZM327.565 65H329.815V55.4551H327.565V65ZM327.407 52.8711C327.407 53.5479 327.996 54.0928 328.708 54.1016C329.42 54.0928 330.009 53.5479 330.009 52.8711C330.009 52.2031 329.42 51.6582 328.708 51.6582C327.996 51.6582 327.407 52.2031 327.407 52.8711ZM334.21 52.2734H331.96V65H334.21V52.2734ZM340.591 65.1934C342.806 65.1934 344.335 64.1035 344.739 62.4512H342.542C342.252 63.0225 341.593 63.4443 340.608 63.4355C339.158 63.4443 338.2 62.4775 338.165 60.8516H344.827V60.1484C344.827 56.7998 342.806 55.332 340.468 55.332C337.743 55.332 335.95 57.3359 335.95 60.2891C335.95 63.2773 337.717 65.1934 340.591 65.1934ZM338.174 59.3223C338.253 58.1094 339.158 57.0723 340.503 57.0723C341.795 57.0723 342.674 58.0215 342.683 59.3223H338.174Z" fill="white"/>
<path d="M168.492 90H169.723V85.584H174.002V84.5039H169.723V81.1953H174.453V80.1016H168.492V90ZM176.135 90H177.311V82.5762H176.135V90ZM175.902 80.5664C175.896 80.9971 176.271 81.3457 176.723 81.3457C177.174 81.3457 177.55 80.9971 177.557 80.5664C177.55 80.1289 177.174 79.7803 176.723 79.7871C176.271 79.7803 175.896 80.1289 175.902 80.5664ZM180.359 80.1016H179.184V90H180.359V80.1016ZM185.35 90.1504C186.881 90.1572 187.981 89.3916 188.33 88.2637H187.072C186.799 88.7217 186.238 89.1113 185.35 89.1113C184.03 89.1113 183.114 88.25 183.053 86.6777H188.439V86.1855C188.446 83.4375 186.799 82.4805 185.24 82.4805C183.224 82.4805 181.877 84.0664 181.877 86.3496C181.877 88.626 183.203 90.1572 185.35 90.1504ZM183.06 85.6797C183.142 84.5312 183.955 83.5195 185.24 83.5195C186.464 83.5195 187.243 84.4424 187.25 85.6797H183.06ZM196.725 82.5762H195.166V80.7988H193.977V82.5762H192.855V83.5605H193.977V88.168C193.983 89.4805 195.022 90.0957 196.014 90.0957C196.362 90.0957 196.649 90.0684 196.834 90.041V88.9473C196.663 88.9541 196.349 88.9746 196.137 88.9746C195.638 88.9746 195.159 88.8174 195.166 87.8672V83.5605H196.725V82.5762ZM198.994 92.7891C200.047 92.7822 200.771 92.2354 201.209 91.0664L204.354 82.5762H203.068L201.045 88.4688H200.963L198.939 82.5762H197.654L200.402 90.0547L200.184 90.6152C199.794 91.7021 199.391 91.7295 198.912 91.7363C198.728 91.7295 198.461 91.7227 198.338 91.709V92.7617C198.488 92.7754 198.741 92.7822 198.994 92.7891ZM205.652 92.7891H206.828V88.8652H206.924C207.177 89.2754 207.669 90.1572 209.084 90.1504C210.937 90.1572 212.229 88.667 212.229 86.3086C212.229 83.957 210.937 82.4805 209.07 82.4805C207.628 82.4805 207.177 83.3555 206.924 83.752H206.787V82.5762H205.652V92.7891ZM206.801 86.2812C206.808 84.6338 207.532 83.5332 208.92 83.5332C210.349 83.5332 211.053 84.7295 211.053 86.2812C211.053 87.8604 210.328 89.0977 208.92 89.0977C207.553 89.0977 206.808 87.9492 206.801 86.2812ZM216.877 90.1504C218.408 90.1572 219.509 89.3916 219.857 88.2637H218.6C218.326 88.7217 217.766 89.1113 216.877 89.1113C215.558 89.1113 214.642 88.25 214.58 86.6777H219.967V86.1855C219.974 83.4375 218.326 82.4805 216.768 82.4805C214.751 82.4805 213.404 84.0664 213.404 86.3496C213.404 88.626 214.73 90.1572 216.877 90.1504ZM214.587 85.6797C214.669 84.5312 215.482 83.5195 216.768 83.5195C217.991 83.5195 218.771 84.4424 218.777 85.6797H214.587ZM225.627 84.5039H226.775C226.625 83.3008 225.661 82.4805 224.123 82.4805C222.489 82.4805 221.375 83.3965 221.375 84.668C221.375 85.6592 222.065 86.3633 223.357 86.6641L224.479 86.9238C225.319 87.1221 225.695 87.4639 225.695 87.9902C225.695 88.6875 225.032 89.1318 223.973 89.125C223.036 89.1318 222.51 88.7832 222.373 88.0586H221.143C221.341 89.4121 222.332 90.1572 224 90.1504C225.859 90.1572 226.905 89.207 226.912 87.9219C226.905 86.8896 226.256 86.2266 224.93 85.9121L223.822 85.6387C222.954 85.4268 222.558 85.0918 222.551 84.5996C222.558 83.9775 223.207 83.4854 224.123 83.4785C224.991 83.4854 225.463 83.8887 225.627 84.5039ZM236.086 84.5039H237.234C237.084 83.3008 236.12 82.4805 234.582 82.4805C232.948 82.4805 231.834 83.3965 231.834 84.668C231.834 85.6592 232.524 86.3633 233.816 86.6641L234.938 86.9238C235.778 87.1221 236.154 87.4639 236.154 87.9902C236.154 88.6875 235.491 89.1318 234.432 89.125C233.495 89.1318 232.969 88.7832 232.832 88.0586H231.602C231.8 89.4121 232.791 90.1572 234.459 90.1504C236.318 90.1572 237.364 89.207 237.371 87.9219C237.364 86.8896 236.715 86.2266 235.389 85.9121L234.281 85.6387C233.413 85.4268 233.017 85.0918 233.01 84.5996C233.017 83.9775 233.666 83.4854 234.582 83.4785C235.45 83.4854 235.922 83.8887 236.086 84.5039ZM243.592 86.9512C243.585 88.3389 242.532 88.9678 241.691 88.9609C240.741 88.9678 240.078 88.2773 240.078 87.2109V82.5762H238.902V87.293C238.896 89.1797 239.9 90.0957 241.309 90.0957C242.423 90.0957 243.161 89.4941 243.51 88.7422H243.592V90H244.754V82.5762H243.592V86.9512ZM246.641 92.7891H247.816V88.8652H247.912C248.165 89.2754 248.657 90.1572 250.072 90.1504C251.925 90.1572 253.217 88.667 253.217 86.3086C253.217 83.957 251.925 82.4805 250.059 82.4805C248.616 82.4805 248.165 83.3555 247.912 83.752H247.775V82.5762H246.641V92.7891ZM247.789 86.2812C247.796 84.6338 248.521 83.5332 249.908 83.5332C251.337 83.5332 252.041 84.7295 252.041 86.2812C252.041 87.8604 251.316 89.0977 249.908 89.0977C248.541 89.0977 247.796 87.9492 247.789 86.2812ZM254.748 92.7891H255.924V88.8652H256.02C256.272 89.2754 256.765 90.1572 258.18 90.1504C260.032 90.1572 261.324 88.667 261.324 86.3086C261.324 83.957 260.032 82.4805 258.166 82.4805C256.724 82.4805 256.272 83.3555 256.02 83.752H255.883V82.5762H254.748V92.7891ZM255.896 86.2812C255.903 84.6338 256.628 83.5332 258.016 83.5332C259.444 83.5332 260.148 84.7295 260.148 86.2812C260.148 87.8604 259.424 89.0977 258.016 89.0977C256.648 89.0977 255.903 87.9492 255.896 86.2812ZM265.891 90.1504C267.907 90.1572 269.261 88.626 269.254 86.3223C269.261 84.0049 267.907 82.4805 265.891 82.4805C263.867 82.4805 262.5 84.0049 262.5 86.3223C262.5 88.626 263.867 90.1572 265.891 90.1504ZM263.676 86.3223C263.683 84.8457 264.38 83.5195 265.891 83.5195C267.388 83.5195 268.078 84.8457 268.078 86.3223C268.078 87.8057 267.388 89.1113 265.891 89.1113C264.38 89.1113 263.683 87.8057 263.676 86.3223ZM270.799 90H271.975V85.3242C271.975 84.3262 272.768 83.5879 273.834 83.5879C274.142 83.5879 274.456 83.6494 274.545 83.6699V82.4805C274.408 82.4668 274.107 82.46 273.93 82.4531C273.055 82.46 272.282 82.959 272.016 83.7109H271.934V82.5762H270.799V90ZM279.398 82.5762H277.84V80.7988H276.65V82.5762H275.529V83.5605H276.65V88.168C276.657 89.4805 277.696 90.0957 278.688 90.0957C279.036 90.0957 279.323 90.0684 279.508 90.041V88.9473C279.337 88.9541 279.022 88.9746 278.811 88.9746C278.312 88.9746 277.833 88.8174 277.84 87.8672V83.5605H279.398V82.5762ZM283.951 90.1504C285.482 90.1572 286.583 89.3916 286.932 88.2637H285.674C285.4 88.7217 284.84 89.1113 283.951 89.1113C282.632 89.1113 281.716 88.25 281.654 86.6777H287.041V86.1855C287.048 83.4375 285.4 82.4805 283.842 82.4805C281.825 82.4805 280.479 84.0664 280.479 86.3496C280.479 88.626 281.805 90.1572 283.951 90.1504ZM281.661 85.6797C281.743 84.5312 282.557 83.5195 283.842 83.5195C285.065 83.5195 285.845 84.4424 285.852 85.6797H281.661ZM291.375 90.1504C292.79 90.1572 293.275 89.2754 293.535 88.8652H293.658V90H294.807V80.1016H293.617V83.752H293.535C293.282 83.3555 292.831 82.4805 291.389 82.4805C289.522 82.4805 288.217 83.957 288.217 86.3086C288.217 88.667 289.522 90.1572 291.375 90.1504ZM289.406 86.2812C289.406 84.7295 290.11 83.5332 291.539 83.5332C292.92 83.5332 293.651 84.6338 293.658 86.2812C293.651 87.9492 292.899 89.0977 291.539 89.0977C290.131 89.0977 289.406 87.8604 289.406 86.2812ZM301.191 88.6875C301.677 88.6807 302.073 88.2842 302.066 87.7988C302.073 87.3203 301.677 86.9238 301.191 86.9238C300.713 86.9238 300.303 87.3203 300.316 87.7988C300.303 88.2842 300.713 88.6807 301.191 88.6875ZM300.316 82.3027C300.303 82.7881 300.713 83.1846 301.191 83.1914C301.677 83.1846 302.073 82.7881 302.066 82.3027C302.073 81.8242 301.677 81.4277 301.191 81.4277C300.713 81.4277 300.303 81.8242 300.316 82.3027ZM307.576 90H308.807V86.4043H310.953C313.257 86.4043 314.316 85.0029 314.316 83.2461C314.316 81.4824 313.257 80.1016 310.939 80.1016H307.576V90ZM308.807 85.3105V81.1953H310.885C312.478 81.1953 313.093 82.0635 313.1 83.2461C313.093 84.4219 312.478 85.3105 310.898 85.3105H308.807ZM323.9 80.1016H322.684V87.8262H322.588L317.229 80.1016H316.039V90H317.27V82.2891H317.365L322.725 90H323.9V80.1016ZM332.842 83.1914H334.113C333.744 81.2773 332.131 79.9648 330.039 79.9648C327.496 79.9648 325.698 81.9199 325.705 85.0508C325.698 88.1816 327.476 90.1367 330.121 90.1367C332.479 90.1367 334.168 88.5576 334.168 86.1035V85.0371H330.381V86.1172H332.965C332.944 87.874 331.789 88.9814 330.121 88.9883C328.289 88.9814 326.901 87.6006 326.895 85.0508C326.901 82.4941 328.289 81.1133 330.039 81.1133C331.454 81.1133 332.418 81.9199 332.842 83.1914ZM342.412 90.1504C344.429 90.1572 345.782 88.626 345.775 86.3223C345.782 84.0049 344.429 82.4805 342.412 82.4805C340.389 82.4805 339.021 84.0049 339.021 86.3223C339.021 88.626 340.389 90.1572 342.412 90.1504ZM340.197 86.3223C340.204 84.8457 340.901 83.5195 342.412 83.5195C343.909 83.5195 344.6 84.8457 344.6 86.3223C344.6 87.8057 343.909 89.1113 342.412 89.1113C340.901 89.1113 340.204 87.8057 340.197 86.3223ZM347.32 90H348.496V85.3242C348.496 84.3262 349.289 83.5879 350.355 83.5879C350.663 83.5879 350.978 83.6494 351.066 83.6699V82.4805C350.93 82.4668 350.629 82.46 350.451 82.4531C349.576 82.46 348.804 82.959 348.537 83.7109H348.455V82.5762H347.32V90ZM362.633 83.1914H363.904C363.535 81.2773 361.922 79.9648 359.83 79.9648C357.287 79.9648 355.489 81.9199 355.496 85.0508C355.489 88.1816 357.267 90.1367 359.912 90.1367C362.271 90.1367 363.959 88.5576 363.959 86.1035V85.0371H360.172V86.1172H362.756C362.735 87.874 361.58 88.9814 359.912 88.9883C358.08 88.9814 356.692 87.6006 356.686 85.0508C356.692 82.4941 358.08 81.1133 359.83 81.1133C361.245 81.1133 362.209 81.9199 362.633 83.1914ZM367.035 80.1016H365.805V90H367.035V80.1016ZM369.223 90H370.453V85.584H374.732V84.5039H370.453V81.1953H375.184V80.1016H369.223V90ZM383.701 82.5762H382.061V81.8242C382.054 81.0586 382.423 80.7168 383.25 80.7168C383.4 80.7168 383.612 80.7305 383.865 80.7715V79.7188C383.619 79.6709 383.277 79.6367 382.99 79.6367C381.678 79.6367 380.878 80.3613 380.871 81.5645V82.5762H379.682V83.5605H380.871V90H382.061V83.5605H383.701V82.5762ZM387.816 90.1504C389.833 90.1572 391.187 88.626 391.18 86.3223C391.187 84.0049 389.833 82.4805 387.816 82.4805C385.793 82.4805 384.426 84.0049 384.426 86.3223C384.426 88.626 385.793 90.1572 387.816 90.1504ZM385.602 86.3223C385.608 84.8457 386.306 83.5195 387.816 83.5195C389.313 83.5195 390.004 84.8457 390.004 86.3223C390.004 87.8057 389.313 89.1113 387.816 89.1113C386.306 89.1113 385.608 87.8057 385.602 86.3223ZM392.725 90H393.9V85.3242C393.9 84.3262 394.693 83.5879 395.76 83.5879C396.067 83.5879 396.382 83.6494 396.471 83.6699V82.4805C396.334 82.4668 396.033 82.46 395.855 82.4531C394.98 82.46 394.208 82.959 393.941 83.7109H393.859V82.5762H392.725V90ZM397.619 90H398.795V85.3652C398.795 84.2852 399.574 83.5332 400.463 83.5332C401.317 83.5332 401.919 84.0938 401.912 84.9277V90H403.102V85.1738C403.108 84.2305 403.696 83.5332 404.729 83.5332C405.542 83.5332 406.226 83.957 406.232 85.0508V90H407.408V85.0371C407.408 83.2871 406.458 82.4805 405.139 82.4805C404.072 82.4805 403.286 82.9727 402.91 83.7383H402.828C402.479 82.9453 401.816 82.4805 400.846 82.4805C399.875 82.4805 399.157 82.9453 398.85 83.7383H398.754V82.5762H397.619V90ZM408.939 87.8945C408.939 89.3438 410.061 90.1709 411.469 90.1777C412.761 90.1709 413.438 89.4873 413.684 88.9883H413.738V90H414.9V85.1055C414.907 82.7676 413.082 82.4805 412.111 82.4805C410.471 82.4805 409.309 83.3076 409.158 84.5039H410.389C410.553 83.9365 411.12 83.5059 412.057 83.5059C413.178 83.5059 413.738 84.0527 413.738 84.9961V85.5977C413.403 85.6045 412.207 85.6729 411.729 85.707C410.443 85.8027 408.939 86.1924 408.939 87.8945ZM410.115 87.9492C410.122 87.1357 410.799 86.7598 411.865 86.6914C412.221 86.6709 413.39 86.582 413.738 86.5615V87.3066C413.738 88.2432 413 89.1318 411.674 89.125C410.771 89.1318 410.122 88.7354 410.115 87.9492ZM420.027 82.5762H418.469V80.7988H417.279V82.5762H416.158V83.5605H417.279V88.168C417.286 89.4805 418.325 90.0957 419.316 90.0957C419.665 90.0957 419.952 90.0684 420.137 90.041V88.9473C419.966 88.9541 419.651 88.9746 419.439 88.9746C418.94 88.9746 418.462 88.8174 418.469 87.8672V83.5605H420.027V82.5762ZM243.086 97.1016V107H244.248V99.5215H244.33L247.406 107H248.5L251.576 99.5215H251.672V107H252.834V97.1016H251.357L248.021 105.25H247.898L244.562 97.1016H243.086ZM254.516 104.895C254.516 106.344 255.637 107.171 257.045 107.178C258.337 107.171 259.014 106.487 259.26 105.988H259.314V107H260.477V102.105C260.483 99.7676 258.658 99.4805 257.688 99.4805C256.047 99.4805 254.885 100.308 254.734 101.504H255.965C256.129 100.937 256.696 100.506 257.633 100.506C258.754 100.506 259.314 101.053 259.314 101.996V102.598C258.979 102.604 257.783 102.673 257.305 102.707C256.02 102.803 254.516 103.192 254.516 104.895ZM255.691 104.949C255.698 104.136 256.375 103.76 257.441 103.691C257.797 103.671 258.966 103.582 259.314 103.562V104.307C259.314 105.243 258.576 106.132 257.25 106.125C256.348 106.132 255.698 105.735 255.691 104.949ZM263.252 99.5762H261.898L264.236 103.281L261.898 107H263.252L265.002 104.129L266.779 107H268.119L265.727 103.281L268.119 99.5762H266.766L265.002 102.598L263.252 99.5762ZM270.375 107.082C270.86 107.075 271.257 106.679 271.25 106.193C271.257 105.715 270.86 105.318 270.375 105.318C269.896 105.318 269.486 105.715 269.5 106.193C269.486 106.679 269.896 107.075 270.375 107.082ZM280.711 101.504H281.859C281.709 100.301 280.745 99.4805 279.207 99.4805C277.573 99.4805 276.459 100.396 276.459 101.668C276.459 102.659 277.149 103.363 278.441 103.664L279.562 103.924C280.403 104.122 280.779 104.464 280.779 104.99C280.779 105.688 280.116 106.132 279.057 106.125C278.12 106.132 277.594 105.783 277.457 105.059H276.227C276.425 106.412 277.416 107.157 279.084 107.15C280.943 107.157 281.989 106.207 281.996 104.922C281.989 103.89 281.34 103.227 280.014 102.912L278.906 102.639C278.038 102.427 277.642 102.092 277.635 101.6C277.642 100.978 278.291 100.485 279.207 100.479C280.075 100.485 280.547 100.889 280.711 101.504ZM283.527 107H284.703V99.5762H283.527V107ZM283.295 97.5664C283.288 97.9971 283.664 98.3457 284.115 98.3457C284.566 98.3457 284.942 97.9971 284.949 97.5664C284.942 97.1289 284.566 96.7803 284.115 96.7871C283.664 96.7803 283.288 97.1289 283.295 97.5664ZM286.357 107H292.195V105.92H287.998V105.838L292.059 100.506V99.5762H286.494V100.656H290.541V100.738L286.357 106.111V107ZM296.652 107.15C298.184 107.157 299.284 106.392 299.633 105.264H298.375C298.102 105.722 297.541 106.111 296.652 106.111C295.333 106.111 294.417 105.25 294.355 103.678H299.742V103.186C299.749 100.438 298.102 99.4805 296.543 99.4805C294.526 99.4805 293.18 101.066 293.18 103.35C293.18 105.626 294.506 107.157 296.652 107.15ZM294.362 102.68C294.444 101.531 295.258 100.52 296.543 100.52C297.767 100.52 298.546 101.442 298.553 102.68H294.362ZM305.621 105.688C306.106 105.681 306.503 105.284 306.496 104.799C306.503 104.32 306.106 103.924 305.621 103.924C305.143 103.924 304.732 104.32 304.746 104.799C304.732 105.284 305.143 105.681 305.621 105.688ZM304.746 99.3027C304.732 99.7881 305.143 100.185 305.621 100.191C306.106 100.185 306.503 99.7881 306.496 99.3027C306.503 98.8242 306.106 98.4277 305.621 98.4277C305.143 98.4277 304.732 98.8242 304.746 99.3027ZM315.342 97.1016H314.098L311.637 98.7422V99.9863L314.043 98.3867H314.098V107H315.342V97.1016ZM321.207 107.137C323.183 107.137 324.618 105.756 324.625 103.842C324.618 101.914 323.23 100.52 321.344 100.52C320.646 100.52 319.983 100.752 319.539 101.094H319.443L319.812 98.1953H324.146V97.1016H318.787L318.09 102.516H319.279C319.642 101.873 320.291 101.613 321.125 101.627C322.458 101.634 323.422 102.584 323.422 103.869C323.422 105.113 322.492 106.05 321.207 106.057C320.134 106.05 319.272 105.394 319.184 104.512H317.994C318.069 106.036 319.423 107.137 321.207 107.137ZM326.498 97.1016V107H327.66V99.5215H327.742L330.818 107H331.912L334.988 99.5215H335.084V107H336.246V97.1016H334.77L331.434 105.25H331.311L327.975 97.1016H326.498ZM338.434 107H342.029C344.367 107 345.345 105.858 345.352 104.375C345.345 102.803 344.265 101.955 343.342 101.9V101.805C344.203 101.565 344.962 100.998 344.955 99.7266C344.962 98.2705 343.984 97.1016 341.906 97.1016H338.434V107ZM339.664 105.906V102.502H342.084C343.355 102.502 344.169 103.356 344.162 104.361C344.169 105.223 343.567 105.906 342.016 105.906H339.664ZM339.664 101.436V98.1953H341.906C343.198 98.1953 343.779 98.8789 343.779 99.7402C343.779 100.772 342.938 101.442 341.865 101.436H339.664ZM25.9492 124H27.1797V120.158H29.3262C29.4082 120.158 29.4902 120.158 29.5654 120.151L31.6367 124H33.0723L30.8438 119.926C32.1016 119.488 32.6895 118.463 32.6895 117.15C32.6895 115.387 31.6299 114.102 29.3125 114.102H25.9492V124ZM27.1797 119.037V115.195H29.2578C30.8506 115.195 31.4658 115.968 31.4727 117.15C31.4658 118.326 30.8506 119.037 29.2715 119.037H27.1797ZM37.3516 124.15C38.8828 124.157 39.9834 123.392 40.332 122.264H39.0742C38.8008 122.722 38.2402 123.111 37.3516 123.111C36.0322 123.111 35.1162 122.25 35.0547 120.678H40.4414V120.186C40.4482 117.438 38.8008 116.48 37.2422 116.48C35.2256 116.48 33.8789 118.066 33.8789 120.35C33.8789 122.626 35.2051 124.157 37.3516 124.15ZM35.0615 119.68C35.1436 118.531 35.957 117.52 37.2422 117.52C38.4658 117.52 39.2451 118.442 39.252 119.68H35.0615ZM45.0078 124.15C46.6553 124.157 47.749 123.139 47.9336 121.812H46.7578C46.5527 122.626 45.8828 123.098 45.0078 123.098C43.6611 123.098 42.7998 121.997 42.793 120.281C42.7998 118.613 43.6816 117.52 45.0078 117.52C45.999 117.52 46.5869 118.142 46.7578 118.818H47.9336C47.749 117.417 46.5596 116.48 44.9805 116.48C42.9639 116.48 41.6172 118.066 41.6172 120.322C41.6172 122.551 42.9023 124.157 45.0078 124.15ZM52.418 124.15C54.4346 124.157 55.7881 122.626 55.7812 120.322C55.7881 118.005 54.4346 116.48 52.418 116.48C50.3945 116.48 49.0273 118.005 49.0273 120.322C49.0273 122.626 50.3945 124.157 52.418 124.15ZM50.2031 120.322C50.21 118.846 50.9072 117.52 52.418 117.52C53.915 117.52 54.6055 118.846 54.6055 120.322C54.6055 121.806 53.915 123.111 52.418 123.111C50.9072 123.111 50.21 121.806 50.2031 120.322ZM57.3262 124H58.502V119.365C58.502 118.285 59.2812 117.533 60.1699 117.533C61.0244 117.533 61.626 118.094 61.6191 118.928V124H62.8086V119.174C62.8154 118.23 63.4033 117.533 64.4355 117.533C65.249 117.533 65.9326 117.957 65.9395 119.051V124H67.1152V119.037C67.1152 117.287 66.165 116.48 64.8457 116.48C63.7793 116.48 62.9932 116.973 62.6172 117.738H62.5352C62.1865 116.945 61.5234 116.48 60.5527 116.48C59.582 116.48 58.8643 116.945 58.5566 117.738H58.4609V116.576H57.3262V124ZM69.002 124H70.1777V119.365C70.1777 118.285 70.957 117.533 71.8457 117.533C72.7002 117.533 73.3018 118.094 73.2949 118.928V124H74.4844V119.174C74.4912 118.23 75.0791 117.533 76.1113 117.533C76.9248 117.533 77.6084 117.957 77.6152 119.051V124H78.791V119.037C78.791 117.287 77.8408 116.48 76.5215 116.48C75.4551 116.48 74.6689 116.973 74.293 117.738H74.2109C73.8623 116.945 73.1992 116.48 72.2285 116.48C71.2578 116.48 70.54 116.945 70.2324 117.738H70.1367V116.576H69.002V124ZM83.7949 124.15C85.3262 124.157 86.4268 123.392 86.7754 122.264H85.5176C85.2441 122.722 84.6836 123.111 83.7949 123.111C82.4756 123.111 81.5596 122.25 81.498 120.678H86.8848V120.186C86.8916 117.438 85.2441 116.48 83.6855 116.48C81.6689 116.48 80.3223 118.066 80.3223 120.35C80.3223 122.626 81.6484 124.157 83.7949 124.15ZM81.5049 119.68C81.5869 118.531 82.4004 117.52 83.6855 117.52C84.9092 117.52 85.6885 118.442 85.6953 119.68H81.5049ZM89.5918 119.543C89.5918 118.258 90.3848 117.533 91.4648 117.533C92.5176 117.533 93.1465 118.217 93.1465 119.365V124H94.3223V119.283C94.3291 117.396 93.3242 116.48 91.8203 116.48C90.6924 116.48 89.9951 116.979 89.6465 117.738H89.5508V116.576H88.416V124H89.5918V119.543ZM99.0117 124.15C100.427 124.157 100.912 123.275 101.172 122.865H101.295V124H102.443V114.102H101.254V117.752H101.172C100.919 117.355 100.468 116.48 99.0254 116.48C97.1592 116.48 95.8535 117.957 95.8535 120.309C95.8535 122.667 97.1592 124.157 99.0117 124.15ZM97.043 120.281C97.043 118.729 97.7471 117.533 99.1758 117.533C100.557 117.533 101.288 118.634 101.295 120.281C101.288 121.949 100.536 123.098 99.1758 123.098C97.7676 123.098 97.043 121.86 97.043 120.281ZM107.598 124.15C109.129 124.157 110.229 123.392 110.578 122.264H109.32C109.047 122.722 108.486 123.111 107.598 123.111C106.278 123.111 105.362 122.25 105.301 120.678H110.688V120.186C110.694 117.438 109.047 116.48 107.488 116.48C105.472 116.48 104.125 118.066 104.125 120.35C104.125 122.626 105.451 124.157 107.598 124.15ZM105.308 119.68C105.39 118.531 106.203 117.52 107.488 117.52C108.712 117.52 109.491 118.442 109.498 119.68H105.308ZM115.021 124.15C116.437 124.157 116.922 123.275 117.182 122.865H117.305V124H118.453V114.102H117.264V117.752H117.182C116.929 117.355 116.478 116.48 115.035 116.48C113.169 116.48 111.863 117.957 111.863 120.309C111.863 122.667 113.169 124.157 115.021 124.15ZM113.053 120.281C113.053 118.729 113.757 117.533 115.186 117.533C116.566 117.533 117.298 118.634 117.305 120.281C117.298 121.949 116.546 123.098 115.186 123.098C113.777 123.098 113.053 121.86 113.053 120.281ZM124.838 124.082C125.323 124.075 125.72 123.679 125.713 123.193C125.72 122.715 125.323 122.318 124.838 122.318C124.359 122.318 123.949 122.715 123.963 123.193C123.949 123.679 124.359 124.075 124.838 124.082ZM123.963 117.697C123.949 118.183 124.359 118.579 124.838 118.586C125.323 118.579 125.72 118.183 125.713 117.697C125.72 117.219 125.323 116.822 124.838 116.822C124.359 116.822 123.949 117.219 123.963 117.697ZM131.072 124H132.248V119.365C132.248 118.285 133.027 117.533 133.916 117.533C134.771 117.533 135.372 118.094 135.365 118.928V124H136.555V119.174C136.562 118.23 137.149 117.533 138.182 117.533C138.995 117.533 139.679 117.957 139.686 119.051V124H140.861V119.037C140.861 117.287 139.911 116.48 138.592 116.48C137.525 116.48 136.739 116.973 136.363 117.738H136.281C135.933 116.945 135.27 116.48 134.299 116.48C133.328 116.48 132.61 116.945 132.303 117.738H132.207V116.576H131.072V124ZM145.865 124.15C147.396 124.157 148.497 123.392 148.846 122.264H147.588C147.314 122.722 146.754 123.111 145.865 123.111C144.546 123.111 143.63 122.25 143.568 120.678H148.955V120.186C148.962 117.438 147.314 116.48 145.756 116.48C143.739 116.48 142.393 118.066 142.393 120.35C142.393 122.626 143.719 124.157 145.865 124.15ZM143.575 119.68C143.657 118.531 144.471 117.52 145.756 117.52C146.979 117.52 147.759 118.442 147.766 119.68H143.575ZM150.131 121.895C150.131 123.344 151.252 124.171 152.66 124.178C153.952 124.171 154.629 123.487 154.875 122.988H154.93V124H156.092V119.105C156.099 116.768 154.273 116.48 153.303 116.48C151.662 116.48 150.5 117.308 150.35 118.504H151.58C151.744 117.937 152.312 117.506 153.248 117.506C154.369 117.506 154.93 118.053 154.93 118.996V119.598C154.595 119.604 153.398 119.673 152.92 119.707C151.635 119.803 150.131 120.192 150.131 121.895ZM151.307 121.949C151.313 121.136 151.99 120.76 153.057 120.691C153.412 120.671 154.581 120.582 154.93 120.562V121.307C154.93 122.243 154.191 123.132 152.865 123.125C151.963 123.132 151.313 122.735 151.307 121.949ZM162.107 118.504H163.256C163.105 117.301 162.142 116.48 160.604 116.48C158.97 116.48 157.855 117.396 157.855 118.668C157.855 119.659 158.546 120.363 159.838 120.664L160.959 120.924C161.8 121.122 162.176 121.464 162.176 121.99C162.176 122.688 161.513 123.132 160.453 123.125C159.517 123.132 158.99 122.783 158.854 122.059H157.623C157.821 123.412 158.812 124.157 160.48 124.15C162.34 124.157 163.386 123.207 163.393 121.922C163.386 120.89 162.736 120.227 161.41 119.912L160.303 119.639C159.435 119.427 159.038 119.092 159.031 118.6C159.038 117.978 159.688 117.485 160.604 117.479C161.472 117.485 161.943 117.889 162.107 118.504ZM169.613 120.951C169.606 122.339 168.554 122.968 167.713 122.961C166.763 122.968 166.1 122.277 166.1 121.211V116.576H164.924V121.293C164.917 123.18 165.922 124.096 167.33 124.096C168.444 124.096 169.183 123.494 169.531 122.742H169.613V124H170.775V116.576H169.613V120.951ZM172.662 124H173.838V119.324C173.838 118.326 174.631 117.588 175.697 117.588C176.005 117.588 176.319 117.649 176.408 117.67V116.48C176.271 116.467 175.971 116.46 175.793 116.453C174.918 116.46 174.146 116.959 173.879 117.711H173.797V116.576H172.662V124ZM180.428 124.15C181.959 124.157 183.06 123.392 183.408 122.264H182.15C181.877 122.722 181.316 123.111 180.428 123.111C179.108 123.111 178.192 122.25 178.131 120.678H183.518V120.186C183.524 117.438 181.877 116.48 180.318 116.48C178.302 116.48 176.955 118.066 176.955 120.35C176.955 122.626 178.281 124.157 180.428 124.15ZM178.138 119.68C178.22 118.531 179.033 117.52 180.318 117.52C181.542 117.52 182.321 118.442 182.328 119.68H178.138ZM189.178 118.504H190.326C190.176 117.301 189.212 116.48 187.674 116.48C186.04 116.48 184.926 117.396 184.926 118.668C184.926 119.659 185.616 120.363 186.908 120.664L188.029 120.924C188.87 121.122 189.246 121.464 189.246 121.99C189.246 122.688 188.583 123.132 187.523 123.125C186.587 123.132 186.061 122.783 185.924 122.059H184.693C184.892 123.412 185.883 124.157 187.551 124.15C189.41 124.157 190.456 123.207 190.463 121.922C190.456 120.89 189.807 120.227 188.48 119.912L187.373 119.639C186.505 119.427 186.108 119.092 186.102 118.6C186.108 117.978 186.758 117.485 187.674 117.479C188.542 117.485 189.014 117.889 189.178 118.504ZM198.721 124.137C200.696 124.137 202.132 122.756 202.139 120.842C202.132 118.914 200.744 117.52 198.857 117.52C198.16 117.52 197.497 117.752 197.053 118.094H196.957L197.326 115.195H201.66V114.102H196.301L195.604 119.516H196.793C197.155 118.873 197.805 118.613 198.639 118.627C199.972 118.634 200.936 119.584 200.936 120.869C200.936 122.113 200.006 123.05 198.721 123.057C197.647 123.05 196.786 122.394 196.697 121.512H195.508C195.583 123.036 196.937 124.137 198.721 124.137ZM207.088 124.137C209.282 124.137 210.547 122.291 210.547 119.051C210.547 115.838 209.262 113.965 207.088 113.965C204.907 113.965 203.622 115.838 203.629 119.051C203.622 122.291 204.894 124.137 207.088 124.137ZM204.818 119.051C204.825 116.487 205.666 115.038 207.088 115.031C208.51 115.038 209.351 116.487 209.344 119.051C209.351 121.614 208.517 123.043 207.088 123.043C205.652 123.043 204.825 121.614 204.818 119.051ZM215.428 124.137C217.622 124.137 218.887 122.291 218.887 119.051C218.887 115.838 217.602 113.965 215.428 113.965C213.247 113.965 211.962 115.838 211.969 119.051C211.962 122.291 213.233 124.137 215.428 124.137ZM213.158 119.051C213.165 116.487 214.006 115.038 215.428 115.031C216.85 115.038 217.69 116.487 217.684 119.051C217.69 121.614 216.856 123.043 215.428 123.043C213.992 123.043 213.165 121.614 213.158 119.051ZM221.635 122.223L224 119.871L226.352 122.223L227.104 121.471L224.752 119.105L227.104 116.768L226.352 116.002L224 118.354L221.635 116.002L220.883 116.768L223.248 119.105L220.883 121.471L221.635 122.223ZM232.531 124.137C234.507 124.137 235.942 122.756 235.949 120.842C235.942 118.914 234.555 117.52 232.668 117.52C231.971 117.52 231.308 117.752 230.863 118.094H230.768L231.137 115.195H235.471V114.102H230.111L229.414 119.516H230.604C230.966 118.873 231.615 118.613 232.449 118.627C233.782 118.634 234.746 119.584 234.746 120.869C234.746 122.113 233.816 123.05 232.531 123.057C231.458 123.05 230.597 122.394 230.508 121.512H229.318C229.394 123.036 230.747 124.137 232.531 124.137ZM240.898 124.137C243.093 124.137 244.357 122.291 244.357 119.051C244.357 115.838 243.072 113.965 240.898 113.965C238.718 113.965 237.433 115.838 237.439 119.051C237.433 122.291 238.704 124.137 240.898 124.137ZM238.629 119.051C238.636 116.487 239.477 115.038 240.898 115.031C242.32 115.038 243.161 116.487 243.154 119.051C243.161 121.614 242.327 123.043 240.898 123.043C239.463 123.043 238.636 121.614 238.629 119.051ZM249.238 124.137C251.433 124.137 252.697 122.291 252.697 119.051C252.697 115.838 251.412 113.965 249.238 113.965C247.058 113.965 245.772 115.838 245.779 119.051C245.772 122.291 247.044 124.137 249.238 124.137ZM246.969 119.051C246.976 116.487 247.816 115.038 249.238 115.031C250.66 115.038 251.501 116.487 251.494 119.051C251.501 121.614 250.667 123.043 249.238 123.043C247.803 123.043 246.976 121.614 246.969 119.051ZM254.352 126.789H255.527V122.865H255.623C255.876 123.275 256.368 124.157 257.783 124.15C259.636 124.157 260.928 122.667 260.928 120.309C260.928 117.957 259.636 116.48 257.77 116.48C256.327 116.48 255.876 117.355 255.623 117.752H255.486V116.576H254.352V126.789ZM255.5 120.281C255.507 118.634 256.231 117.533 257.619 117.533C259.048 117.533 259.752 118.729 259.752 120.281C259.752 121.86 259.027 123.098 257.619 123.098C256.252 123.098 255.507 121.949 255.5 120.281ZM263.033 116.576H261.68L264.018 120.281L261.68 124H263.033L264.783 121.129L266.561 124H267.9L265.508 120.281L267.9 116.576H266.547L264.783 119.598L263.033 116.576ZM270.867 123.084H269.541L268.789 126.803H269.801L270.867 123.084ZM276.418 124H277.594V119.324C277.594 118.326 278.387 117.588 279.453 117.588C279.761 117.588 280.075 117.649 280.164 117.67V116.48C280.027 116.467 279.727 116.46 279.549 116.453C278.674 116.46 277.901 116.959 277.635 117.711H277.553V116.576H276.418V124ZM284.102 124.15C286.118 124.157 287.472 122.626 287.465 120.322C287.472 118.005 286.118 116.48 284.102 116.48C282.078 116.48 280.711 118.005 280.711 120.322C280.711 122.626 282.078 124.157 284.102 124.15ZM281.887 120.322C281.894 118.846 282.591 117.52 284.102 117.52C285.599 117.52 286.289 118.846 286.289 120.322C286.289 121.806 285.599 123.111 284.102 123.111C282.591 123.111 281.894 121.806 281.887 120.322ZM293.699 120.951C293.692 122.339 292.64 122.968 291.799 122.961C290.849 122.968 290.186 122.277 290.186 121.211V116.576H289.01V121.293C289.003 123.18 290.008 124.096 291.416 124.096C292.53 124.096 293.269 123.494 293.617 122.742H293.699V124H294.861V116.576H293.699V120.951ZM297.924 119.543C297.924 118.258 298.717 117.533 299.797 117.533C300.85 117.533 301.479 118.217 301.479 119.365V124H302.654V119.283C302.661 117.396 301.656 116.48 300.152 116.48C299.024 116.48 298.327 116.979 297.979 117.738H297.883V116.576H296.748V124H297.924V119.543ZM307.344 124.15C308.759 124.157 309.244 123.275 309.504 122.865H309.627V124H310.775V114.102H309.586V117.752H309.504C309.251 117.355 308.8 116.48 307.357 116.48C305.491 116.48 304.186 117.957 304.186 120.309C304.186 122.667 305.491 124.157 307.344 124.15ZM305.375 120.281C305.375 118.729 306.079 117.533 307.508 117.533C308.889 117.533 309.62 118.634 309.627 120.281C309.62 121.949 308.868 123.098 307.508 123.098C306.1 123.098 305.375 121.86 305.375 120.281ZM320.455 118.504H321.604C321.453 117.301 320.489 116.48 318.951 116.48C317.317 116.48 316.203 117.396 316.203 118.668C316.203 119.659 316.894 120.363 318.186 120.664L319.307 120.924C320.147 121.122 320.523 121.464 320.523 121.99C320.523 122.688 319.86 123.132 318.801 123.125C317.864 123.132 317.338 122.783 317.201 122.059H315.971C316.169 123.412 317.16 124.157 318.828 124.15C320.688 124.157 321.733 123.207 321.74 121.922C321.733 120.89 321.084 120.227 319.758 119.912L318.65 119.639C317.782 119.427 317.386 119.092 317.379 118.6C317.386 117.978 318.035 117.485 318.951 117.479C319.819 117.485 320.291 117.889 320.455 118.504ZM324.447 119.543C324.447 118.258 325.268 117.533 326.375 117.533C327.441 117.533 328.084 118.196 328.084 119.365V124H329.26V119.283C329.26 117.376 328.248 116.48 326.73 116.48C325.555 116.48 324.892 116.973 324.543 117.738H324.447V114.102H323.271V124H324.447V119.543ZM330.791 121.895C330.791 123.344 331.912 124.171 333.32 124.178C334.612 124.171 335.289 123.487 335.535 122.988H335.59V124H336.752V119.105C336.759 116.768 334.934 116.48 333.963 116.48C332.322 116.48 331.16 117.308 331.01 118.504H332.24C332.404 117.937 332.972 117.506 333.908 117.506C335.029 117.506 335.59 118.053 335.59 118.996V119.598C335.255 119.604 334.059 119.673 333.58 119.707C332.295 119.803 330.791 120.192 330.791 121.895ZM331.967 121.949C331.974 121.136 332.65 120.76 333.717 120.691C334.072 120.671 335.241 120.582 335.59 120.562V121.307C335.59 122.243 334.852 123.132 333.525 123.125C332.623 123.132 331.974 122.735 331.967 121.949ZM338.639 126.789H339.814V122.865H339.91C340.163 123.275 340.655 124.157 342.07 124.15C343.923 124.157 345.215 122.667 345.215 120.309C345.215 117.957 343.923 116.48 342.057 116.48C340.614 116.48 340.163 117.355 339.91 117.752H339.773V116.576H338.639V126.789ZM339.787 120.281C339.794 118.634 340.519 117.533 341.906 117.533C343.335 117.533 344.039 118.729 344.039 120.281C344.039 121.86 343.314 123.098 341.906 123.098C340.539 123.098 339.794 121.949 339.787 120.281ZM349.863 124.15C351.395 124.157 352.495 123.392 352.844 122.264H351.586C351.312 122.722 350.752 123.111 349.863 123.111C348.544 123.111 347.628 122.25 347.566 120.678H352.953V120.186C352.96 117.438 351.312 116.48 349.754 116.48C347.737 116.48 346.391 118.066 346.391 120.35C346.391 122.626 347.717 124.157 349.863 124.15ZM347.573 119.68C347.655 118.531 348.469 117.52 349.754 117.52C350.978 117.52 351.757 118.442 351.764 119.68H347.573ZM356.029 123.084H354.703L353.951 126.803H354.963L356.029 123.084ZM365.709 118.504H366.857C366.707 117.301 365.743 116.48 364.205 116.48C362.571 116.48 361.457 117.396 361.457 118.668C361.457 119.659 362.147 120.363 363.439 120.664L364.561 120.924C365.401 121.122 365.777 121.464 365.777 121.99C365.777 122.688 365.114 123.132 364.055 123.125C363.118 123.132 362.592 122.783 362.455 122.059H361.225C361.423 123.412 362.414 124.157 364.082 124.15C365.941 124.157 366.987 123.207 366.994 121.922C366.987 120.89 366.338 120.227 365.012 119.912L363.904 119.639C363.036 119.427 362.64 119.092 362.633 118.6C362.64 117.978 363.289 117.485 364.205 117.479C365.073 117.485 365.545 117.889 365.709 118.504ZM368.525 124H369.701V116.576H368.525V124ZM368.293 114.566C368.286 114.997 368.662 115.346 369.113 115.346C369.564 115.346 369.94 114.997 369.947 114.566C369.94 114.129 369.564 113.78 369.113 113.787C368.662 113.78 368.286 114.129 368.293 114.566ZM371.355 124H377.193V122.92H372.996V122.838L377.057 117.506V116.576H371.492V117.656H375.539V117.738L371.355 123.111V124ZM381.65 124.15C383.182 124.157 384.282 123.392 384.631 122.264H383.373C383.1 122.722 382.539 123.111 381.65 123.111C380.331 123.111 379.415 122.25 379.354 120.678H384.74V120.186C384.747 117.438 383.1 116.48 381.541 116.48C379.524 116.48 378.178 118.066 378.178 120.35C378.178 122.626 379.504 124.157 381.65 124.15ZM379.36 119.68C379.442 118.531 380.256 117.52 381.541 117.52C382.765 117.52 383.544 118.442 383.551 119.68H379.36ZM390.961 114.102H389.785V124H390.961V114.102ZM395.951 124.15C397.482 124.157 398.583 123.392 398.932 122.264H397.674C397.4 122.722 396.84 123.111 395.951 123.111C394.632 123.111 393.716 122.25 393.654 120.678H399.041V120.186C399.048 117.438 397.4 116.48 395.842 116.48C393.825 116.48 392.479 118.066 392.479 120.35C392.479 122.626 393.805 124.157 395.951 124.15ZM393.661 119.68C393.743 118.531 394.557 117.52 395.842 117.52C397.065 117.52 397.845 118.442 397.852 119.68H393.661ZM404.701 118.504H405.85C405.699 117.301 404.735 116.48 403.197 116.48C401.563 116.48 400.449 117.396 400.449 118.668C400.449 119.659 401.14 120.363 402.432 120.664L403.553 120.924C404.394 121.122 404.77 121.464 404.77 121.99C404.77 122.688 404.106 123.132 403.047 123.125C402.11 123.132 401.584 122.783 401.447 122.059H400.217C400.415 123.412 401.406 124.157 403.074 124.15C404.934 124.157 405.979 123.207 405.986 121.922C405.979 120.89 405.33 120.227 404.004 119.912L402.896 119.639C402.028 119.427 401.632 119.092 401.625 118.6C401.632 117.978 402.281 117.485 403.197 117.479C404.065 117.485 404.537 117.889 404.701 118.504ZM411.646 118.504H412.795C412.645 117.301 411.681 116.48 410.143 116.48C408.509 116.48 407.395 117.396 407.395 118.668C407.395 119.659 408.085 120.363 409.377 120.664L410.498 120.924C411.339 121.122 411.715 121.464 411.715 121.99C411.715 122.688 411.052 123.132 409.992 123.125C409.056 123.132 408.529 122.783 408.393 122.059H407.162C407.36 123.412 408.352 124.157 410.02 124.15C411.879 124.157 412.925 123.207 412.932 121.922C412.925 120.89 412.275 120.227 410.949 119.912L409.842 119.639C408.974 119.427 408.577 119.092 408.57 118.6C408.577 117.978 409.227 117.485 410.143 117.479C411.011 117.485 411.482 117.889 411.646 118.504ZM421.217 116.576H419.658V114.799H418.469V116.576H417.348V117.561H418.469V122.168C418.476 123.48 419.515 124.096 420.506 124.096C420.854 124.096 421.142 124.068 421.326 124.041V122.947C421.155 122.954 420.841 122.975 420.629 122.975C420.13 122.975 419.651 122.817 419.658 121.867V117.561H421.217V116.576ZM424.074 119.543C424.074 118.258 424.895 117.533 426.002 117.533C427.068 117.533 427.711 118.196 427.711 119.365V124H428.887V119.283C428.887 117.376 427.875 116.48 426.357 116.48C425.182 116.48 424.519 116.973 424.17 117.738H424.074V114.102H422.898V124H424.074V119.543ZM430.418 121.895C430.418 123.344 431.539 124.171 432.947 124.178C434.239 124.171 434.916 123.487 435.162 122.988H435.217V124H436.379V119.105C436.386 116.768 434.561 116.48 433.59 116.48C431.949 116.48 430.787 117.308 430.637 118.504H431.867C432.031 117.937 432.599 117.506 433.535 117.506C434.656 117.506 435.217 118.053 435.217 118.996V119.598C434.882 119.604 433.686 119.673 433.207 119.707C431.922 119.803 430.418 120.192 430.418 121.895ZM431.594 121.949C431.601 121.136 432.277 120.76 433.344 120.691C433.699 120.671 434.868 120.582 435.217 120.562V121.307C435.217 122.243 434.479 123.132 433.152 123.125C432.25 123.132 431.601 122.735 431.594 121.949ZM439.441 119.543C439.441 118.258 440.234 117.533 441.314 117.533C442.367 117.533 442.996 118.217 442.996 119.365V124H444.172V119.283C444.179 117.396 443.174 116.48 441.67 116.48C440.542 116.48 439.845 116.979 439.496 117.738H439.4V116.576H438.266V124H439.441V119.543ZM449.559 124H455.984V122.906H451.268V122.824L453.537 120.486C455.287 118.682 455.8 117.82 455.807 116.713C455.8 115.175 454.528 113.965 452.73 113.965C450.939 113.965 449.586 115.141 449.6 116.891H450.762C450.769 115.783 451.507 115.038 452.689 115.031C453.804 115.038 454.651 115.694 454.658 116.713C454.651 117.629 454.091 118.299 452.922 119.543L449.545 123.098L449.559 124ZM461.016 124.137C463.21 124.137 464.475 122.291 464.475 119.051C464.475 115.838 463.189 113.965 461.016 113.965C458.835 113.965 457.55 115.838 457.557 119.051C457.55 122.291 458.821 124.137 461.016 124.137ZM458.746 119.051C458.753 116.487 459.594 115.038 461.016 115.031C462.438 115.038 463.278 116.487 463.271 119.051C463.278 121.614 462.444 123.043 461.016 123.043C459.58 123.043 458.753 121.614 458.746 119.051ZM469.355 124.137C471.55 124.137 472.814 122.291 472.814 119.051C472.814 115.838 471.529 113.965 469.355 113.965C467.175 113.965 465.89 115.838 465.896 119.051C465.89 122.291 467.161 124.137 469.355 124.137ZM467.086 119.051C467.093 116.487 467.934 115.038 469.355 115.031C470.777 115.038 471.618 116.487 471.611 119.051C471.618 121.614 470.784 123.043 469.355 123.043C467.92 123.043 467.093 121.614 467.086 119.051ZM474.619 124H475.85V120.814L477.08 119.42L480.484 124H481.988L477.846 118.572L481.988 114.102H480.375L475.973 118.996H475.85V114.102H474.619V124ZM483.314 124H486.91C489.248 124 490.226 122.858 490.232 121.375C490.226 119.803 489.146 118.955 488.223 118.9V118.805C489.084 118.565 489.843 117.998 489.836 116.727C489.843 115.271 488.865 114.102 486.787 114.102H483.314V124ZM484.545 122.906V119.502H486.965C488.236 119.502 489.05 120.356 489.043 121.361C489.05 122.223 488.448 122.906 486.896 122.906H484.545ZM484.545 118.436V115.195H486.787C488.079 115.195 488.66 115.879 488.66 116.74C488.66 117.772 487.819 118.442 486.746 118.436H484.545ZM495.646 120.227C495.66 122.811 496.357 124.957 497.615 126.789H498.654C497.731 125.429 496.87 122.667 496.863 120.227C496.87 117.793 497.731 115.024 498.654 113.678H497.615C496.357 115.503 495.66 117.649 495.646 120.227ZM500.117 124H501.293V119.365C501.293 118.285 502.072 117.533 502.961 117.533C503.815 117.533 504.417 118.094 504.41 118.928V124H505.6V119.174C505.606 118.23 506.194 117.533 507.227 117.533C508.04 117.533 508.724 117.957 508.73 119.051V124H509.906V119.037C509.906 117.287 508.956 116.48 507.637 116.48C506.57 116.48 505.784 116.973 505.408 117.738H505.326C504.978 116.945 504.314 116.48 503.344 116.48C502.373 116.48 501.655 116.945 501.348 117.738H501.252V116.576H500.117V124ZM511.438 121.895C511.438 123.344 512.559 124.171 513.967 124.178C515.259 124.171 515.936 123.487 516.182 122.988H516.236V124H517.398V119.105C517.405 116.768 515.58 116.48 514.609 116.48C512.969 116.48 511.807 117.308 511.656 118.504H512.887C513.051 117.937 513.618 117.506 514.555 117.506C515.676 117.506 516.236 118.053 516.236 118.996V119.598C515.901 119.604 514.705 119.673 514.227 119.707C512.941 119.803 511.438 120.192 511.438 121.895ZM512.613 121.949C512.62 121.136 513.297 120.76 514.363 120.691C514.719 120.671 515.888 120.582 516.236 120.562V121.307C516.236 122.243 515.498 123.132 514.172 123.125C513.27 123.132 512.62 122.735 512.613 121.949ZM520.174 116.576H518.82L521.158 120.281L518.82 124H520.174L521.924 121.129L523.701 124H525.041L522.648 120.281L525.041 116.576H523.688L521.924 119.598L520.174 116.576ZM529.717 121.977H534.516V124H535.691V121.977H537.072V120.896H535.691V114.102H534.174L529.717 120.965V121.977ZM531.043 120.896V120.814L534.393 115.66H534.516V120.896H531.043ZM538.863 114.102V124H540.025V116.521H540.107L543.184 124H544.277L547.354 116.521H547.449V124H548.611V114.102H547.135L543.799 122.25H543.676L540.34 114.102H538.863ZM550.799 124H554.395C556.732 124 557.71 122.858 557.717 121.375C557.71 119.803 556.63 118.955 555.707 118.9V118.805C556.568 118.565 557.327 117.998 557.32 116.727C557.327 115.271 556.35 114.102 554.271 114.102H550.799V124ZM552.029 122.906V119.502H554.449C555.721 119.502 556.534 120.356 556.527 121.361C556.534 122.223 555.933 122.906 554.381 122.906H552.029ZM552.029 118.436V115.195H554.271C555.563 115.195 556.145 115.879 556.145 116.74C556.145 117.772 555.304 118.442 554.23 118.436H552.029ZM561.9 120.227C561.887 117.649 561.189 115.503 559.932 113.678H558.893C559.815 115.024 560.677 117.793 560.684 120.227C560.677 122.667 559.815 125.429 558.893 126.789H559.932C561.189 124.957 561.887 122.811 561.9 120.227Z" fill="white" fill-opacity="0.8"/>
</svg>
