<svg width="17" height="16" viewBox="0 0 17 16" fill="none" xmlns="http://www.w3.org/2000/svg">
<path d="M0.982506 7.09506L10.5132 3.16827C11.454 2.75922 14.6445 1.45029 14.6445 1.45029C14.6445 1.45029 16.117 0.877634 15.9943 2.26837C15.9534 2.84103 15.6262 4.84533 15.299 7.01325L14.2763 13.4352C14.2763 13.4352 14.1945 14.376 13.4992 14.5396C12.8038 14.7032 11.6585 13.967 11.454 13.8033C11.2903 13.6806 8.38615 11.8399 7.32265 10.9401C7.03632 10.6946 6.70909 10.2038 7.36355 9.63112C8.8361 8.28128 10.595 6.60421 11.6585 5.54071C12.1493 5.04986 12.6402 3.90454 10.595 5.29528L4.82749 9.18117C4.82749 9.18117 4.17303 9.59021 2.94591 9.22208C1.71878 8.85394 0.287136 8.36309 0.287136 8.36309C0.287136 8.36309 -0.694563 7.74953 0.982506 7.09506Z" fill="white"/>
</svg>
